<svg xmlns="http://www.w3.org/2000/svg" xmlns:xlink="http://www.w3.org/1999/xlink" width="904px" height="849px" version="1.1" style="background-color: rgb(255, 255, 255);"><defs/><g transform="translate(0.5,0.5)"><rect x="2" y="277" width="900" height="570" rx="86" ry="86" fill="none" stroke="#000000" stroke-width="2" pointer-events="none"/><path d="M 773 622 L 773 727 Q 773 737 763 737 L 523 737 Q 513 737 513 727 L 513 667" fill="none" stroke="#cccccc" stroke-width="3" stroke-miterlimit="10" stroke-dasharray="9 9" pointer-events="none"/><path d="M 773 622 L 773 727 Q 773 737 763 737 L 243 737 Q 233 737 233 727 L 233 667" fill="none" stroke="#cccccc" stroke-width="3" stroke-miterlimit="10" stroke-dasharray="9 9" pointer-events="none"/><rect x="102" y="497" width="262" height="170" rx="26" ry="26" fill="none" stroke="#f7981f" stroke-width="3" stroke-dasharray="9 9" pointer-events="none"/><g fill="#F7981F" font-family="Helvetica" font-weight="bold" text-anchor="middle" font-size="18px"><text x="233" y="691">Access Zone #2</text></g><path d="M 144 47 L 96 47 C 94 47 92 49 92 51 L 92 55 C 92 57 94 59 96 59 L 144 59 C 146 59 148 57 148 55 L 148 51 C 148 49 146 47 144 47 Z M 142 55 L 124 55 C 123 55 122 54 122 53 C 122 52 123 51 124 51 L 142 51 C 143 51 144 52 144 53 C 144 54 143 55 142 55 Z" fill="#c5c7c9" stroke="none" pointer-events="none"/><path d="M 99 43 L 141 43 C 145 43 148 40 148 37 L 148 13 C 148 9 145 6 141 6 L 99 6 C 95 6 92 9 92 13 L 92 37 C 92 40 95 43 99 43 Z M 97 13 C 97 11 97 11 99 11 L 141 11 C 143 11 143 11 143 13 L 143 37 C 143 38 143 39 141 39 L 99 39 C 97 39 97 38 97 37 L 97 13 Z" fill="#c5c7c9" stroke="none" pointer-events="none"/><g fill="#000000" font-family="Helvetica" text-anchor="middle" font-size="12px"><text x="120" y="77">Client Terminal #1</text></g><path d="M 38 15 C 38 8 32 2 25 2 C 17 2 11 8 11 15 C 11 23 17 29 25 29 C 32 29 38 23 38 15 Z" fill="#c5c7c9" stroke="none" pointer-events="none"/><path d="M 32 32 L 17 32 C 9 32 2 38 2 46 L 2 63 L 11 63 L 11 51 L 12 51 L 12 63 L 37 63 L 37 51 L 38 51 L 38 63 L 47 63 L 47 46 C 47 38 40 32 32 32 Z" fill="#c5c7c9" stroke="none" pointer-events="none"/><g fill="#000000" font-family="Helvetica" text-anchor="middle" font-size="12px"><text x="25" y="81">User #1</text></g><path d="M 610 102 C 610 90 599 80 587 80 C 574 80 563 90 563 102 C 563 114 574 124 587 124 C 599 124 610 114 610 102 Z" fill="#c5c7c9" stroke="none" pointer-events="none"/><path d="M 600 130 L 573 130 C 558 130 547 138 547 152 L 547 180 L 562 180 L 562 161 L 565 161 L 565 180 L 609 180 L 609 161 L 611 161 L 611 180 L 627 180 L 627 152 C 627 138 615 130 600 130 Z" fill="#c5c7c9" stroke="none" pointer-events="none"/><g fill="#000000" font-family="Helvetica" text-anchor="middle" font-size="12px"><text x="587" y="198">AWS Administrator</text></g><path d="M 817 601 L 730 601 C 726 601 722 604 722 608 L 722 614 C 722 618 726 622 730 622 L 817 622 C 821 622 825 618 825 614 L 825 608 C 825 604 821 601 817 601 Z M 813 614 L 781 614 C 779 614 778 613 778 611 C 778 610 779 608 781 608 L 813 608 C 815 608 816 610 816 611 C 816 613 815 614 813 614 Z" fill="#f7981f" stroke="none" pointer-events="none"/><path d="M 734 595 L 812 595 C 819 595 824 590 824 584 L 824 543 C 824 536 819 532 812 532 L 734 532 C 727 532 722 536 722 543 L 722 584 C 722 590 727 595 734 595 Z M 730 543 C 730 541 732 539 734 539 L 812 539 C 814 539 816 541 816 543 L 816 584 C 816 586 814 587 812 587 L 734 587 C 732 587 730 586 730 584 L 730 543 Z" fill="#f7981f" stroke="none" pointer-events="none"/><g fill="#000000" font-family="Helvetica" text-anchor="middle" font-size="12px"><text x="773" y="640">AWS Server</text></g><path d="M 157 401 L 162 401 L 148 387 L 134 401 L 139 401 L 139 410 L 146 418 L 139 425 L 139 435 L 134 435 L 148 449 L 162 435 L 157 435 L 157 425 L 150 418 L 157 410 Z" fill="#ff9800" stroke="none" pointer-events="none"/><path d="M 142 418 L 128 404 L 128 411 L 117 411 L 117 424 L 128 424 L 128 431 L 142 418 Z" fill="#ff9800" stroke="none" pointer-events="none"/><path d="M 154 417 L 168 431 L 168 424 L 180 424 L 180 411 L 168 411 L 168 404 L 154 417 Z" fill="#ff9800" stroke="none" pointer-events="none"/><g fill="#000000" font-family="Helvetica" text-anchor="middle" font-size="12px"><text x="148" y="467">Load Dependent Scaling</text></g><path d="M 38 99 C 38 92 32 86 25 86 C 17 86 11 92 11 99 C 11 107 17 113 25 113 C 32 113 38 107 38 99 Z" fill="#c5c7c9" stroke="none" pointer-events="none"/><path d="M 32 116 L 17 116 C 9 116 2 122 2 130 L 2 147 L 11 147 L 11 135 L 12 135 L 12 147 L 37 147 L 37 135 L 38 135 L 38 147 L 47 147 L 47 130 C 47 122 40 116 32 116 Z" fill="#c5c7c9" stroke="none" pointer-events="none"/><g fill="#000000" font-family="Helvetica" text-anchor="middle" font-size="12px"><text x="25" y="165">User #2</text></g><path d="M 38 189 C 38 182 32 176 25 176 C 17 176 11 182 11 189 C 11 197 17 203 25 203 C 32 203 38 197 38 189 Z" fill="#c5c7c9" stroke="none" pointer-events="none"/><path d="M 32 206 L 17 206 C 9 206 2 212 2 220 L 2 237 L 11 237 L 11 225 L 12 225 L 12 237 L 37 237 L 37 225 L 38 225 L 38 237 L 47 237 L 47 220 C 47 212 40 206 32 206 Z" fill="#c5c7c9" stroke="none" pointer-events="none"/><g fill="#000000" font-family="Helvetica" text-anchor="middle" font-size="12px"><text x="25" y="255">User #3</text></g><path d="M 144 131 L 96 131 C 94 131 92 133 92 135 L 92 139 C 92 141 94 143 96 143 L 144 143 C 146 143 148 141 148 139 L 148 135 C 148 133 146 131 144 131 Z M 142 139 L 124 139 C 123 139 122 138 122 137 C 122 136 123 135 124 135 L 142 135 C 143 135 144 136 144 137 C 144 138 143 139 142 139 Z" fill="#c5c7c9" stroke="none" pointer-events="none"/><path d="M 99 127 L 141 127 C 145 127 148 124 148 121 L 148 97 C 148 93 145 90 141 90 L 99 90 C 95 90 92 93 92 97 L 92 121 C 92 124 95 127 99 127 Z M 97 97 C 97 95 97 95 99 95 L 141 95 C 143 95 143 95 143 97 L 143 121 C 143 122 143 123 141 123 L 99 123 C 97 123 97 122 97 121 L 97 97 Z" fill="#c5c7c9" stroke="none" pointer-events="none"/><g fill="#000000" font-family="Helvetica" text-anchor="middle" font-size="12px"><text x="120" y="161">Client Terminal #2</text></g><path d="M 144 221 L 96 221 C 94 221 92 223 92 225 L 92 229 C 92 231 94 233 96 233 L 144 233 C 146 233 148 231 148 229 L 148 225 C 148 223 146 221 144 221 Z M 142 229 L 124 229 C 123 229 122 228 122 227 C 122 226 123 225 124 225 L 142 225 C 143 225 144 226 144 227 C 144 228 143 229 142 229 Z" fill="#c5c7c9" stroke="none" pointer-events="none"/><path d="M 99 217 L 141 217 C 145 217 148 214 148 211 L 148 187 C 148 183 145 180 141 180 L 99 180 C 95 180 92 183 92 187 L 92 211 C 92 214 95 217 99 217 Z M 97 187 C 97 185 97 185 99 185 L 141 185 C 143 185 143 185 143 187 L 143 211 C 143 212 143 213 141 213 L 99 213 C 97 213 97 212 97 211 L 97 187 Z" fill="#c5c7c9" stroke="none" pointer-events="none"/><g fill="#000000" font-family="Helvetica" text-anchor="middle" font-size="12px"><text x="120" y="251">Client Terminal #3</text></g><path d="M 374 317 C 358 317 345 330 345 346 C 345 361 358 374 374 374 C 389 374 402 361 402 346 C 402 330 389 317 374 317 Z M 391 337 L 382 337 L 382 335 L 380 338 L 378 336 L 366 345 L 376 345 L 376 343 L 382 345 L 382 342 L 391 342 L 391 350 L 382 350 L 382 347 L 376 349 L 376 347 L 366 347 L 379 356 L 380 354 L 382 357 L 382 355 L 391 355 L 391 364 L 382 364 L 382 361 L 376 359 L 377 358 L 362 347 L 362 353 L 352 353 L 352 339 L 362 339 L 362 345 L 377 334 L 376 333 L 382 331 L 382 328 L 391 328 L 391 337 Z" fill="#262261" stroke="none" pointer-events="none"/><g fill="#000000" font-family="Helvetica" text-anchor="middle" font-size="12px"><text x="374" y="392">Elastic Load Balancer</text></g><rect x="382" y="497" width="262" height="170" rx="26" ry="26" fill="none" stroke="#f7981f" stroke-width="3" stroke-dasharray="9 9" pointer-events="none"/><g fill="#F7981F" font-family="Helvetica" font-weight="bold" text-anchor="middle" font-size="18px"><text x="513" y="691">Access Zone #3</text></g><path d="M 307 574 C 307 575 308 577 310 577 L 337 577 C 339 577 340 575 340 574 L 340 546 C 340 544 339 543 337 543 L 310 543 C 308 543 307 544 307 546 L 307 574 Z" fill="#ff9800" stroke="none" pointer-events="none"/><path d="M 304 543 C 304 541 305 540 307 540 L 328 540 L 328 533 C 328 531 326 530 325 530 L 297 530 C 296 530 294 531 294 533 L 294 561 C 294 563 296 564 297 564 L 304 564 L 304 543 Z" fill="#ff9800" stroke="none" pointer-events="none"/><path d="M 292 531 C 292 529 293 528 295 528 L 315 528 L 315 520 C 315 519 314 518 312 518 L 285 518 C 283 518 282 519 282 520 L 282 548 C 282 550 283 551 285 551 L 292 551 L 292 531 Z" fill="#ff9800" stroke="none" pointer-events="none"/><path d="M 582 574 C 582 575 584 577 585 577 L 613 577 C 614 577 616 575 616 574 L 616 546 C 616 544 614 543 613 543 L 585 543 C 584 543 582 544 582 546 L 582 574 Z" fill="#ff9800" stroke="none" pointer-events="none"/><path d="M 580 543 C 580 541 581 540 583 540 L 603 540 L 603 533 C 603 531 602 530 600 530 L 573 530 C 571 530 570 531 570 533 L 570 561 C 570 563 571 564 573 564 L 580 564 L 580 543 Z" fill="#ff9800" stroke="none" pointer-events="none"/><path d="M 567 531 C 567 529 569 528 570 528 L 591 528 L 591 520 C 591 519 589 518 588 518 L 560 518 C 559 518 558 519 558 520 L 558 548 C 558 550 559 551 560 551 L 567 551 L 567 531 Z" fill="#ff9800" stroke="none" pointer-events="none"/><path d="M 477 576 C 478 577 480 578 483 578 C 480 578 478 577 477 576 C 477 576 477 576 477 576 Z" fill="none" stroke="none" pointer-events="none"/><path d="M 474 566 L 474 565 L 475 565 C 476 565 483 566 487 568 C 484 565 474 565 474 565 C 474 565 474 566 474 568 C 474 567 474 566 474 566 Z" fill="none" stroke="none" pointer-events="none"/><path d="M 531 591 L 532 591 L 531 592 C 531 592 526 600 522 601 C 522 601 522 601 522 601 C 526 600 532 591 532 591 C 532 591 526 588 522 588 C 526 588 531 591 531 591 Z" fill="none" stroke="none" pointer-events="none"/><path d="M 533 589 C 532 589 526 586 522 586 C 521 586 520 586 520 586 C 519 587 517 587 516 589 L 516 559 L 488 559 L 488 567 C 485 564 475 563 474 563 L 472 563 L 472 565 C 472 566 473 575 475 578 C 478 580 484 581 488 581 L 488 609 L 516 609 L 516 603 C 517 603 519 604 520 604 C 521 604 522 603 523 603 C 528 602 533 593 534 592 L 535 590 L 533 589 Z M 492 580 C 492 580 491 580 491 580 C 489 579 486 579 483 578 C 480 578 478 577 477 576 C 477 576 477 576 477 576 C 477 576 477 576 477 576 C 475 574 474 570 474 568 C 474 566 474 565 474 565 C 474 565 484 565 487 568 C 488 569 489 569 489 570 C 492 572 493 579 493 579 L 493 580 L 492 580 Z M 522 601 C 522 601 522 601 522 601 C 522 601 522 601 522 601 C 521 602 521 602 520 602 C 516 602 512 600 511 600 L 510 600 L 511 599 C 511 598 516 589 520 588 C 520 588 521 588 521 588 C 522 588 522 588 522 588 C 526 588 532 591 532 591 C 532 591 526 600 522 601 Z" fill="#296934" stroke="none" pointer-events="none"/><path d="M 598 401 L 603 401 L 589 387 L 575 401 L 580 401 L 580 410 L 587 418 L 580 425 L 580 435 L 575 435 L 589 449 L 603 435 L 598 435 L 598 425 L 591 418 L 598 410 Z" fill="#ff9800" stroke="none" pointer-events="none"/><path d="M 583 418 L 569 404 L 569 411 L 558 411 L 558 424 L 569 424 L 569 431 L 583 418 Z" fill="#ff9800" stroke="none" pointer-events="none"/><path d="M 595 417 L 609 431 L 609 424 L 621 424 L 621 411 L 609 411 L 609 404 L 595 417 Z" fill="#ff9800" stroke="none" pointer-events="none"/><g fill="#000000" font-family="Helvetica" text-anchor="middle" font-size="12px"><text x="589" y="467">Load Dependent Scaling</text></g><path d="M 394 366 L 503 366 Q 513 366 513 376 L 513 487" fill="none" stroke="#999999" stroke-width="3" stroke-miterlimit="10" pointer-events="none"/><path d="M 513 494 L 509 485 L 513 487 L 518 485 Z" fill="#999999" stroke="#999999" stroke-width="3" stroke-miterlimit="10" pointer-events="none"/><path d="M 353 366 L 243 366 Q 233 366 233 376 L 233 487" fill="none" stroke="#999999" stroke-width="3" stroke-miterlimit="10" pointer-events="none"/><path d="M 233 494 L 229 485 L 233 487 L 238 485 Z" fill="#999999" stroke="#999999" stroke-width="3" stroke-miterlimit="10" pointer-events="none"/><path d="M 148 33 L 364 33 Q 374 33 374 43 L 374 307" fill="none" stroke="#999999" stroke-width="3" stroke-miterlimit="10" pointer-events="none"/><path d="M 374 314 L 369 305 L 374 307 L 378 305 Z" fill="#999999" stroke="#999999" stroke-width="3" stroke-miterlimit="10" pointer-events="none"/><path d="M 148 117 L 364 117 Q 374 117 374 127 L 374 307" fill="none" stroke="#999999" stroke-width="3" stroke-miterlimit="10" pointer-events="none"/><path d="M 374 314 L 369 305 L 374 307 L 378 305 Z" fill="#999999" stroke="#999999" stroke-width="3" stroke-miterlimit="10" pointer-events="none"/><path d="M 148 207 L 364 207 Q 374 207 374 217 L 374 307" fill="none" stroke="#999999" stroke-width="3" stroke-miterlimit="10" pointer-events="none"/><path d="M 374 314 L 369 305 L 374 307 L 378 305 Z" fill="#999999" stroke="#999999" stroke-width="3" stroke-miterlimit="10" pointer-events="none"/><path d="M 627 150 L 763 150 Q 773 150 773 160 L 773 532" fill="none" stroke="#f7981f" stroke-width="4" stroke-miterlimit="10" pointer-events="none"/><path d="M 547 150 L 404 150 Q 394 150 394 160 L 394 325" fill="none" stroke="#f7981f" stroke-width="4" stroke-miterlimit="10" pointer-events="none"/><path d="M 206 575 C 208 576 210 577 213 577 C 210 576 207 576 206 574 C 206 575 206 575 206 575 Z" fill="none" stroke="none" pointer-events="none"/><path d="M 204 564 L 204 563 L 205 564 C 206 564 213 565 217 567 C 213 564 204 563 204 563 C 204 563 204 565 204 566 C 204 565 204 565 204 564 Z" fill="none" stroke="none" pointer-events="none"/><path d="M 261 589 L 261 590 L 261 590 C 261 591 256 599 252 600 C 252 600 252 600 252 600 C 256 599 262 590 262 590 C 262 590 256 587 252 586 C 256 587 260 589 261 589 Z" fill="none" stroke="none" pointer-events="none"/><path d="M 263 588 C 262 587 256 584 251 584 C 251 584 250 585 249 585 C 248 585 247 586 246 587 L 246 557 L 218 557 L 218 565 C 214 562 205 561 204 561 L 202 561 L 202 563 C 202 565 202 573 205 576 C 207 579 213 579 218 579 L 218 607 L 246 607 L 246 602 C 247 602 248 602 250 602 C 251 602 251 602 252 602 C 257 600 263 592 263 591 L 265 589 L 263 588 Z M 221 578 C 221 578 221 578 220 578 C 219 578 215 578 213 577 C 210 577 208 576 206 575 C 206 575 206 575 206 574 C 206 574 206 574 206 574 C 204 573 204 569 204 566 C 204 565 204 563 204 563 C 204 563 213 564 217 567 C 217 567 218 568 219 568 C 221 571 222 577 222 577 L 222 578 L 221 578 Z M 252 600 C 252 600 252 600 252 600 C 252 600 252 600 252 600 C 251 600 250 600 249 600 C 246 600 241 599 241 599 L 240 598 L 240 597 C 241 596 245 588 249 587 C 250 586 250 586 251 586 C 251 586 252 586 252 586 C 256 587 262 590 262 590 C 262 590 256 599 252 600 Z" fill="#296934" stroke="none" pointer-events="none"/></g></svg>