<?xml version="1.0" standalone="yes"?>

<svg version="1.1" viewBox="0.0 0.0 960.0 720.0" fill="none" stroke="none" stroke-linecap="square" stroke-miterlimit="10" xmlns="http://www.w3.org/2000/svg" xmlns:xlink="http://www.w3.org/1999/xlink"><clipPath id="p.0"><path d="m0 0l960.0 0l0 720.0l-960.0 0l0 -720.0z" clip-rule="nonzero"></path></clipPath><g clip-path="url(#p.0)"><path fill="#000000" fill-opacity="0.0" d="m0 0l960.0 0l0 720.0l-960.0 0z" fill-rule="nonzero"></path><path fill="#cfe2f3" d="m128.5643 486.75195l0 0c0 4.6270447 15.003754 8.37796 33.51181 8.37796c18.508072 0 33.51181 -3.7509155 33.51181 -8.37796l0 56.787415c0 4.627014 -15.003738 8.37793 -33.51181 8.37793c-18.508057 0 -33.51181 -3.7509155 -33.51181 -8.37793z" fill-rule="nonzero"></path><path fill="#e2edf7" d="m128.5643 486.75195l0 0c0 -4.627014 15.003754 -8.37793 33.51181 -8.37793c18.508072 0 33.51181 3.7509155 33.51181 8.37793l0 0c0 4.6270447 -15.003738 8.37796 -33.51181 8.37796c-18.508057 0 -33.51181 -3.7509155 -33.51181 -8.37796z" fill-rule="nonzero"></path><path fill="#000000" fill-opacity="0.0" d="m195.58792 486.75195l0 0c0 4.6270447 -15.003738 8.37796 -33.51181 8.37796c-18.508057 0 -33.51181 -3.7509155 -33.51181 -8.37796l0 0c0 -4.627014 15.003754 -8.37793 33.51181 -8.37793c18.508072 0 33.51181 3.7509155 33.51181 8.37793l0 56.787415c0 4.627014 -15.003738 8.37793 -33.51181 8.37793c-18.508057 0 -33.51181 -3.7509155 -33.51181 -8.37793l0 -56.787415" fill-rule="nonzero"></path><path stroke="#000000" stroke-width="2.0" stroke-linejoin="round" stroke-linecap="butt" d="m195.58792 486.75195l0 0c0 4.6270447 -15.003738 8.37796 -33.51181 8.37796c-18.508057 0 -33.51181 -3.7509155 -33.51181 -8.37796l0 0c0 -4.627014 15.003754 -8.37793 33.51181 -8.37793c18.508072 0 33.51181 3.7509155 33.51181 8.37793l0 56.787415c0 4.627014 -15.003738 8.37793 -33.51181 8.37793c-18.508057 0 -33.51181 -3.7509155 -33.51181 -8.37793l0 -56.787415" fill-rule="nonzero"></path><path fill="#cfe2f3" d="m234.29921 413.20865l0 0c0 4.627014 15.003754 8.37796 33.511826 8.37796c18.508057 0 33.51181 -3.750946 33.51181 -8.37796l0 56.787415c0 4.627014 -15.003754 8.37796 -33.51181 8.37796c-18.508072 0 -33.511826 -3.750946 -33.511826 -8.37796z" fill-rule="nonzero"></path><path fill="#e2edf7" d="m234.29921 413.20865l0 0c0 -4.627014 15.003754 -8.37793 33.511826 -8.37793c18.508057 0 33.51181 3.7509155 33.51181 8.37793l0 0c0 4.627014 -15.003754 8.37796 -33.51181 8.37796c-18.508072 0 -33.511826 -3.750946 -33.511826 -8.37796z" fill-rule="nonzero"></path><path fill="#000000" fill-opacity="0.0" d="m301.32285 413.20865l0 0c0 4.627014 -15.003754 8.37796 -33.51181 8.37796c-18.508072 0 -33.511826 -3.750946 -33.511826 -8.37796l0 0c0 -4.627014 15.003754 -8.37793 33.511826 -8.37793c18.508057 0 33.51181 3.7509155 33.51181 8.37793l0 56.787415c0 4.627014 -15.003754 8.37796 -33.51181 8.37796c-18.508072 0 -33.511826 -3.750946 -33.511826 -8.37796l0 -56.787415" fill-rule="nonzero"></path><path stroke="#000000" stroke-width="2.0" stroke-linejoin="round" stroke-linecap="butt" d="m301.32285 413.20865l0 0c0 4.627014 -15.003754 8.37796 -33.51181 8.37796c-18.508072 0 -33.511826 -3.750946 -33.511826 -8.37796l0 0c0 -4.627014 15.003754 -8.37793 33.511826 -8.37793c18.508057 0 33.51181 3.7509155 33.51181 8.37793l0 56.787415c0 4.627014 -15.003754 8.37796 -33.51181 8.37796c-18.508072 0 -33.511826 -3.750946 -33.511826 -8.37796l0 -56.787415" fill-rule="nonzero"></path><path fill="#cfe2f3" d="m159.92914 413.20865l0 0c0 4.627014 15.003738 8.37796 33.51181 8.37796c18.508057 0 33.51181 -3.750946 33.51181 -8.37796l0 56.787415c0 4.627014 -15.003754 8.37796 -33.51181 8.37796c-18.508072 0 -33.51181 -3.750946 -33.51181 -8.37796z" fill-rule="nonzero"></path><path fill="#e2edf7" d="m159.92914 413.20865l0 0c0 -4.627014 15.003738 -8.37793 33.51181 -8.37793c18.508057 0 33.51181 3.7509155 33.51181 8.37793l0 0c0 4.627014 -15.003754 8.37796 -33.51181 8.37796c-18.508072 0 -33.51181 -3.750946 -33.51181 -8.37796z" fill-rule="nonzero"></path><path fill="#000000" fill-opacity="0.0" d="m226.95276 413.20865l0 0c0 4.627014 -15.003754 8.37796 -33.51181 8.37796c-18.508072 0 -33.51181 -3.750946 -33.51181 -8.37796l0 0c0 -4.627014 15.003738 -8.37793 33.51181 -8.37793c18.508057 0 33.51181 3.7509155 33.51181 8.37793l0 56.787415c0 4.627014 -15.003754 8.37796 -33.51181 8.37796c-18.508072 0 -33.51181 -3.750946 -33.51181 -8.37796l0 -56.787415" fill-rule="nonzero"></path><path stroke="#000000" stroke-width="2.0" stroke-linejoin="round" stroke-linecap="butt" d="m226.95276 413.20865l0 0c0 4.627014 -15.003754 8.37796 -33.51181 8.37796c-18.508072 0 -33.51181 -3.750946 -33.51181 -8.37796l0 0c0 -4.627014 15.003738 -8.37793 33.51181 -8.37793c18.508057 0 33.51181 3.7509155 33.51181 8.37793l0 56.787415c0 4.627014 -15.003754 8.37796 -33.51181 8.37796c-18.508072 0 -33.51181 -3.750946 -33.51181 -8.37796l0 -56.787415" fill-rule="nonzero"></path><path fill="#cfe2f3" d="m168.70735 448.2116l107.64601 0l0 61.8804c-53.820114 0 -53.820114 23.808441 -107.64601 11.904205zm8.868713 0l0 -8.0224l106.91081 0l0 62.268555c-4.0638733 0 -8.133514 0.43133545 -8.133514 0.43133545l0 -54.67749zm8.336121 -8.0224l0 -7.828308l107.83705 0l0 62.074463c-4.6311646 0 -9.26236 0.32348633 -9.26236 0.32348633l0 -54.56964z" fill-rule="nonzero"></path><path fill="#000000" fill-opacity="0.0" d="m168.70735 448.2116l107.64601 0l0 61.8804c-53.820114 0 -53.820114 23.808441 -107.64601 11.904205zm8.868713 0l0 -8.0224l106.91081 0l0 62.268555c-4.0638733 0 -8.133514 0.43133545 -8.133514 0.43133545m-90.44118 -62.69989l0 -7.828308l107.83705 0l0 62.074463c-4.6311646 0 -9.26236 0.32348633 -9.26236 0.32348633" fill-rule="nonzero"></path><path fill="#000000" fill-opacity="0.0" d="m168.70735 521.9962c53.825897 11.904236 53.825897 -11.904205 107.64601 -11.904205l0 -7.2029114c0 0 4.069641 -0.43133545 8.133514 -0.43133545l0 -7.6989136c0 0 4.631195 -0.32348633 9.26236 -0.32348633l0 -62.074463l-107.83705 0l0 7.828308l-8.336121 0l0 8.0224l-8.868713 0z" fill-rule="nonzero"></path><path stroke="#000000" stroke-width="2.0" stroke-linejoin="round" stroke-linecap="butt" d="m168.70735 448.2116l107.64601 0l0 61.8804c-53.820114 0 -53.820114 23.808441 -107.64601 11.904205zm8.868713 0l0 -8.0224l106.91081 0l0 62.268555c-4.0638733 0 -8.133514 0.43133545 -8.133514 0.43133545m-90.44118 -62.69989l0 -7.828308l107.83705 0l0 62.074463c-4.6311646 0 -9.26236 0.32348633 -9.26236 0.32348633" fill-rule="nonzero"></path><path fill="#000000" d="m179.09798 492.02393l0 -13.59375l1.796875 0l0 6.734375l6.765625 -6.734375l2.4375 0l-5.703125 5.5l5.953125 8.09375l-2.375 0l-4.84375 -6.890625l-2.234375 2.171875l0 4.71875l-1.796875 0zm19.052948 -3.171875l1.71875 0.21875q-0.40625 1.5 -1.515625 2.34375q-1.09375 0.828125 -2.8125 0.828125q-2.15625 0 -3.421875 -1.328125q-1.265625 -1.328125 -1.265625 -3.734375q0 -2.484375 1.265625 -3.859375q1.28125 -1.375 3.328125 -1.375q1.984375 0 3.234375 1.34375q1.25 1.34375 1.25 3.796875q0 0.140625 -0.015625 0.4375l-7.34375 0q0.09375 1.625 0.921875 2.484375q0.828125 0.859375 2.0625 0.859375q0.90625 0 1.546875 -0.46875q0.65625 -0.484375 1.046875 -1.546875zm-5.484375 -2.703125l5.5 0q-0.109375 -1.234375 -0.625 -1.859375q-0.796875 -0.96875 -2.078125 -0.96875q-1.140625 0 -1.9375 0.78125q-0.78125 0.765625 -0.859375 2.046875zm9.031967 9.671875l-0.171875 -1.5625q0.546875 0.140625 0.953125 0.140625q0.546875 0 0.875 -0.1875q0.34375 -0.1875 0.5625 -0.515625q0.15625 -0.25 0.5 -1.25q0.046875 -0.140625 0.15625 -0.40625l-3.734375 -9.875l1.796875 0l2.046875 5.71875q0.40625 1.078125 0.71875 2.28125q0.28125 -1.15625 0.6875 -2.25l2.09375 -5.75l1.671875 0l-3.75 10.03125q-0.59375 1.625 -0.9375 2.234375q-0.4375 0.828125 -1.015625 1.203125q-0.578125 0.390625 -1.375 0.390625q-0.484375 0 -1.078125 -0.203125zm8.15625 -3.5625l3.9375 -14.0625l1.34375 0l-3.9375 14.0625l-1.34375 0zm10.542679 -0.234375l-5.28125 -13.59375l1.953125 0l3.53125 9.875q0.4375 1.1875 0.71875 2.21875q0.3125 -1.109375 0.734375 -2.21875l3.671875 -9.875l1.84375 0l-5.328125 13.59375l-1.84375 0zm14.771698 -1.21875q-0.9375 0.796875 -1.796875 1.125q-0.859375 0.3125 -1.84375 0.3125q-1.609375 0 -2.484375 -0.78125q-0.875 -0.796875 -0.875 -2.03125q0 -0.734375 0.328125 -1.328125q0.328125 -0.59375 0.859375 -0.953125q0.53125 -0.359375 1.203125 -0.546875q0.5 -0.140625 1.484375 -0.25q2.03125 -0.25 2.984375 -0.578125q0 -0.34375 0 -0.4375q0 -1.015625 -0.46875 -1.4375q-0.640625 -0.5625 -1.90625 -0.5625q-1.171875 0 -1.734375 0.40625q-0.5625 0.40625 -0.828125 1.46875l-1.640625 -0.234375q0.234375 -1.046875 0.734375 -1.6875q0.515625 -0.640625 1.46875 -0.984375q0.96875 -0.359375 2.25 -0.359375q1.265625 0 2.046875 0.296875q0.78125 0.296875 1.15625 0.75q0.375 0.453125 0.515625 1.140625q0.09375 0.421875 0.09375 1.53125l0 2.234375q0 2.328125 0.09375 2.953125q0.109375 0.609375 0.4375 1.171875l-1.75 0q-0.265625 -0.515625 -0.328125 -1.21875zm-0.140625 -3.71875q-0.90625 0.359375 -2.734375 0.625q-1.03125 0.140625 -1.453125 0.328125q-0.421875 0.1875 -0.65625 0.546875q-0.234375 0.359375 -0.234375 0.796875q0 0.671875 0.5 1.125q0.515625 0.4375 1.484375 0.4375q0.96875 0 1.71875 -0.421875q0.75 -0.4375 1.109375 -1.15625q0.265625 -0.578125 0.265625 -1.671875l0 -0.609375zm4.047592 4.9375l0 -13.59375l1.671875 0l0 13.59375l-1.671875 0zm10.629196 0l0 -1.453125q-1.140625 1.671875 -3.125 1.671875q-0.859375 0 -1.625 -0.328125q-0.75 -0.34375 -1.125 -0.84375q-0.359375 -0.5 -0.515625 -1.234375q-0.09375 -0.5 -0.09375 -1.5625l0 -6.109375l1.671875 0l0 5.46875q0 1.3125 0.09375 1.765625q0.15625 0.65625 0.671875 1.03125q0.515625 0.375 1.265625 0.375q0.75 0 1.40625 -0.375q0.65625 -0.390625 0.921875 -1.046875q0.28125 -0.671875 0.28125 -1.9375l0 -5.28125l1.671875 0l0 9.859375l-1.5 0zm10.672592 -3.171875l1.71875 0.21875q-0.40625 1.5 -1.515625 2.34375q-1.09375 0.828125 -2.8125 0.828125q-2.15625 0 -3.421875 -1.328125q-1.265625 -1.328125 -1.265625 -3.734375q0 -2.484375 1.265625 -3.859375q1.28125 -1.375 3.328125 -1.375q1.984375 0 3.234375 1.34375q1.25 1.34375 1.25 3.796875q0 0.140625 -0.015625 0.4375l-7.34375 0q0.09375 1.625 0.921875 2.484375q0.828125 0.859375 2.0625 0.859375q0.90625 0 1.546875 -0.46875q0.65625 -0.484375 1.046875 -1.546875zm-5.484375 -2.703125l5.5 0q-0.109375 -1.234375 -0.625 -1.859375q-0.796875 -0.96875 -2.078125 -0.96875q-1.140625 0 -1.9375 0.78125q-0.78125 0.765625 -0.859375 2.046875z" fill-rule="nonzero"></path><path fill="#cfe2f3" d="m266.86877 486.75195l0 0c0 4.6270447 15.003754 8.37796 33.51181 8.37796c18.508057 0 33.51181 -3.7509155 33.51181 -8.37796l0 56.787415c0 4.627014 -15.003754 8.37793 -33.51181 8.37793c-18.508057 0 -33.51181 -3.7509155 -33.51181 -8.37793z" fill-rule="nonzero"></path><path fill="#e2edf7" d="m266.86877 486.75195l0 0c0 -4.627014 15.003754 -8.37793 33.51181 -8.37793c18.508057 0 33.51181 3.7509155 33.51181 8.37793l0 0c0 4.6270447 -15.003754 8.37796 -33.51181 8.37796c-18.508057 0 -33.51181 -3.7509155 -33.51181 -8.37796z" fill-rule="nonzero"></path><path fill="#000000" fill-opacity="0.0" d="m333.8924 486.75195l0 0c0 4.6270447 -15.003754 8.37796 -33.51181 8.37796c-18.508057 0 -33.51181 -3.7509155 -33.51181 -8.37796l0 0c0 -4.627014 15.003754 -8.37793 33.51181 -8.37793c18.508057 0 33.51181 3.7509155 33.51181 8.37793l0 56.787415c0 4.627014 -15.003754 8.37793 -33.51181 8.37793c-18.508057 0 -33.51181 -3.7509155 -33.51181 -8.37793l0 -56.787415" fill-rule="nonzero"></path><path stroke="#000000" stroke-width="2.0" stroke-linejoin="round" stroke-linecap="butt" d="m333.8924 486.75195l0 0c0 4.6270447 -15.003754 8.37796 -33.51181 8.37796c-18.508057 0 -33.51181 -3.7509155 -33.51181 -8.37796l0 0c0 -4.627014 15.003754 -8.37793 33.51181 -8.37793c18.508057 0 33.51181 3.7509155 33.51181 8.37793l0 56.787415c0 4.627014 -15.003754 8.37793 -33.51181 8.37793c-18.508057 0 -33.51181 -3.7509155 -33.51181 -8.37793l0 -56.787415" fill-rule="nonzero"></path><path fill="#cfe2f3" d="m197.71654 527.78345l0 0c0 4.627014 15.003754 8.377991 33.51181 8.377991c18.508057 0 33.511795 -3.7509766 33.511795 -8.377991l0 56.787415c0 4.627014 -15.003738 8.37793 -33.511795 8.37793c-18.508057 0 -33.51181 -3.7509155 -33.51181 -8.37793z" fill-rule="nonzero"></path><path fill="#e2edf7" d="m197.71654 527.78345l0 0c0 -4.627014 15.003754 -8.37793 33.51181 -8.37793c18.508057 0 33.511795 3.7509155 33.511795 8.37793l0 0c0 4.627014 -15.003738 8.377991 -33.511795 8.377991c-18.508057 0 -33.51181 -3.7509766 -33.51181 -8.377991z" fill-rule="nonzero"></path><path fill="#000000" fill-opacity="0.0" d="m264.74014 527.78345l0 0c0 4.627014 -15.003738 8.377991 -33.511795 8.377991c-18.508057 0 -33.51181 -3.7509766 -33.51181 -8.377991l0 0c0 -4.627014 15.003754 -8.37793 33.51181 -8.37793c18.508057 0 33.511795 3.7509155 33.511795 8.37793l0 56.787415c0 4.627014 -15.003738 8.37793 -33.511795 8.37793c-18.508057 0 -33.51181 -3.7509155 -33.51181 -8.37793l0 -56.787415" fill-rule="nonzero"></path><path stroke="#000000" stroke-width="2.0" stroke-linejoin="round" stroke-linecap="butt" d="m264.74014 527.78345l0 0c0 4.627014 -15.003738 8.377991 -33.511795 8.377991c-18.508057 0 -33.51181 -3.7509766 -33.51181 -8.377991l0 0c0 -4.627014 15.003754 -8.37793 33.51181 -8.37793c18.508057 0 33.511795 3.7509155 33.511795 8.37793l0 56.787415c0 4.627014 -15.003738 8.37793 -33.511795 8.37793c-18.508057 0 -33.51181 -3.7509155 -33.51181 -8.37793l0 -56.787415" fill-rule="nonzero"></path><path fill="#cfe2f3" d="m428.12207 152.80241l0 0c-1.1069946 -7.713043 2.5275269 -15.3484955 9.361359 -19.666351c6.8338013 -4.3178406 15.668396 -4.560837 22.754913 -0.6258545l0 0c2.5102844 -4.4846954 7.1047974 -7.5810547 12.393799 -8.352516c5.289032 -0.77145386 10.651306 0.872612 14.464905 4.4348984l0 0c2.1384277 -4.066101 6.3372498 -6.798004 11.106537 -7.226288c4.7692566 -0.42827606 9.434021 1.5076752 12.338928 5.1208878l0 0c3.8633728 -4.3100586 10.010101 -6.124771 15.780487 -4.658905c5.7703247 1.4658661 10.127869 5.9490356 11.187134 11.509621l0 0c4.7332764 1.2240753 8.676025 4.3358307 10.809509 8.531311c2.133484 4.195465 2.2484741 9.06308 0.31518555 13.345184l0 0c4.6609497 5.751358 5.7512207 13.414963 2.8640747 20.130905c-2.887207 6.7159424 -9.318115 11.47522 -16.892822 12.501755c-0.05340576 6.3031464 -3.699463 12.086838 -9.532837 15.121796c-5.833435 3.0349426 -12.943237 2.847229 -18.58908 -0.4907837c-2.4048157 7.549103 -9.173553 13.103668 -17.381897 14.263916c-8.2083435 1.1602325 -16.384766 -2.281845 -20.996765 -8.839142c-5.6533203 3.2321167 -12.436829 4.1631927 -18.820343 2.5831757c-6.383484 -1.5800018 -11.829224 -5.537979 -15.108765 -10.98111l0 0c-5.777008 0.64094543 -11.362549 -2.1967926 -13.984589 -7.104843c-2.6220093 -4.9080505 -1.7223511 -10.841614 2.252533 -14.855881l0 0c-5.1532288 -2.8756256 -7.782715 -8.581833 -6.5173035 -14.143051c1.2654419 -5.5612183 6.1390076 -9.717255 12.079376 -10.300903z" fill-rule="nonzero"></path><path fill="#000000" fill-opacity="0.0" d="m422.44577 177.54364l0 0c2.4318237 1.3570251 5.24115 1.9725952 8.050781 1.7640839m3.6800232 20.197128c1.208252 -0.13404846 2.3925476 -0.41792297 3.5223694 -0.84428406m30.40506 9.241867c-0.8497925 -1.2082367 -1.5612793 -2.4993439 -2.122345 -3.8513336m40.502472 -1.5736694l0 0c0.43844604 -1.3763123 0.72250366 -2.7928467 0.84747314 -4.225952m27.273376 -10.404526c0.05682373 -6.710678 -3.9633179 -12.8550415 -10.333679 -15.7939m24.362305 -16.838043c-1.0316162 2.2851105 -2.6065674 4.312195 -4.6013184 5.922333m-6.5224 -27.799438l0 0c0.17578125 0.92277527 0.2571411 1.8594208 0.24291992 2.7969666m-27.210083 -9.6474l0 0c-0.9637146 1.0751495 -1.7576904 2.2766113 -2.3572083 3.5669708m-21.08847 -1.4620361l0 0c-0.5135803 0.97654724 -0.8970947 2.009903 -1.1416931 3.0762482m-25.717407 0.8414459l0 0c1.4994812 0.83262634 2.8867493 1.8348083 4.131256 2.984497m-36.24713 17.307816l0 0c0.15258789 1.0630646 0.39364624 2.1130066 0.7209778 3.14003" fill-rule="nonzero"></path><path stroke="#000000" stroke-width="2.0" stroke-linejoin="round" stroke-linecap="butt" d="m428.12207 152.80241l0 0c-1.1069946 -7.713043 2.5275269 -15.3484955 9.361359 -19.666351c6.8338013 -4.3178406 15.668396 -4.560837 22.754913 -0.6258545l0 0c2.5102844 -4.4846954 7.1047974 -7.5810547 12.393799 -8.352516c5.289032 -0.77145386 10.651306 0.872612 14.464905 4.4348984l0 0c2.1384277 -4.066101 6.3372498 -6.798004 11.106537 -7.226288c4.7692566 -0.42827606 9.434021 1.5076752 12.338928 5.1208878l0 0c3.8633728 -4.3100586 10.010101 -6.124771 15.780487 -4.658905c5.7703247 1.4658661 10.127869 5.9490356 11.187134 11.509621l0 0c4.7332764 1.2240753 8.676025 4.3358307 10.809509 8.531311c2.133484 4.195465 2.2484741 9.06308 0.31518555 13.345184l0 0c4.6609497 5.751358 5.7512207 13.414963 2.8640747 20.130905c-2.887207 6.7159424 -9.318115 11.47522 -16.892822 12.501755c-0.05340576 6.3031464 -3.699463 12.086838 -9.532837 15.121796c-5.833435 3.0349426 -12.943237 2.847229 -18.58908 -0.4907837c-2.4048157 7.549103 -9.173553 13.103668 -17.381897 14.263916c-8.2083435 1.1602325 -16.384766 -2.281845 -20.996765 -8.839142c-5.6533203 3.2321167 -12.436829 4.1631927 -18.820343 2.5831757c-6.383484 -1.5800018 -11.829224 -5.537979 -15.108765 -10.98111l0 0c-5.777008 0.64094543 -11.362549 -2.1967926 -13.984589 -7.104843c-2.6220093 -4.9080505 -1.7223511 -10.841614 2.252533 -14.855881l0 0c-5.1532288 -2.8756256 -7.782715 -8.581833 -6.5173035 -14.143051c1.2654419 -5.5612183 6.1390076 -9.717255 12.079376 -10.300903z" fill-rule="nonzero"></path><path stroke="#000000" stroke-width="2.0" stroke-linejoin="round" stroke-linecap="butt" d="m422.44577 177.54364l0 0c2.4318237 1.3570251 5.24115 1.9725952 8.050781 1.7640839m3.6800232 20.197128c1.208252 -0.13404846 2.3925476 -0.41792297 3.5223694 -0.84428406m30.40506 9.241867c-0.8497925 -1.2082367 -1.5612793 -2.4993439 -2.122345 -3.8513336m40.502472 -1.5736694l0 0c0.43844604 -1.3763123 0.72250366 -2.7928467 0.84747314 -4.225952m27.273376 -10.404526c0.05682373 -6.710678 -3.9633179 -12.8550415 -10.333679 -15.7939m24.362305 -16.838043c-1.0316162 2.2851105 -2.6065674 4.312195 -4.6013184 5.922333m-6.5224 -27.799438l0 0c0.17578125 0.92277527 0.2571411 1.8594208 0.24291992 2.7969666m-27.210083 -9.6474l0 0c-0.9637146 1.0751495 -1.7576904 2.2766113 -2.3572083 3.5669708m-21.08847 -1.4620361l0 0c-0.5135803 0.97654724 -0.8970947 2.009903 -1.1416931 3.0762482m-25.717407 0.8414459l0 0c1.4994812 0.83262634 2.8867493 1.8348083 4.131256 2.984497m-36.24713 17.307816l0 0c0.15258789 1.0630646 0.39364624 2.1130066 0.7209778 3.14003" fill-rule="nonzero"></path><path fill="#000000" d="m445.41574 173.5096l0 -13.59375l1.8125 0l0 13.59375l-1.8125 0zm4.667694 0l0 -9.859375l1.5 0l0 1.40625q1.09375 -1.625 3.140625 -1.625q0.890625 0 1.640625 0.328125q0.75 0.3125 1.109375 0.84375q0.375 0.515625 0.53125 1.21875q0.09375 0.46875 0.09375 1.625l0 6.0625l-1.671875 0l0 -6.0q0 -1.015625 -0.203125 -1.515625q-0.1875 -0.515625 -0.6875 -0.8125q-0.5 -0.296875 -1.171875 -0.296875q-1.0625 0 -1.84375 0.671875q-0.765625 0.671875 -0.765625 2.578125l0 5.375l-1.671875 0zm14.031952 -1.5l0.234375 1.484375q-0.703125 0.140625 -1.265625 0.140625q-0.90625 0 -1.40625 -0.28125q-0.5 -0.296875 -0.703125 -0.75q-0.203125 -0.46875 -0.203125 -1.984375l0 -5.65625l-1.234375 0l0 -1.3125l1.234375 0l0 -2.4375l1.65625 -1.0l0 3.4375l1.6875 0l0 1.3125l-1.6875 0l0 5.75q0 0.71875 0.078125 0.921875q0.09375 0.203125 0.296875 0.328125q0.203125 0.125 0.578125 0.125q0.265625 0 0.734375 -0.078125zm8.277069 -1.671875l1.71875 0.21875q-0.40625 1.5 -1.515625 2.34375q-1.09375 0.828125 -2.8125 0.828125q-2.15625 0 -3.421875 -1.328125q-1.265625 -1.328125 -1.265625 -3.734375q0 -2.484375 1.265625 -3.859375q1.28125 -1.375 3.328125 -1.375q1.984375 0 3.234375 1.34375q1.25 1.34375 1.25 3.796875q0 0.140625 -0.015625 0.4375l-7.34375 0q0.09375 1.625 0.921875 2.484375q0.828125 0.859375 2.0625 0.859375q0.90625 0 1.546875 -0.46875q0.65625 -0.484375 1.046875 -1.546875zm-5.484375 -2.703125l5.5 0q-0.109375 -1.234375 -0.625 -1.859375q-0.796875 -0.96875 -2.078125 -0.96875q-1.140625 0 -1.9375 0.78125q-0.78125 0.765625 -0.859375 2.046875zm9.094452 5.875l0 -9.859375l1.5 0l0 1.5q0.578125 -1.046875 1.0625 -1.375q0.484375 -0.34375 1.078125 -0.34375q0.84375 0 1.71875 0.546875l-0.578125 1.546875q-0.609375 -0.359375 -1.234375 -0.359375q-0.546875 0 -0.984375 0.328125q-0.421875 0.328125 -0.609375 0.90625q-0.28125 0.890625 -0.28125 1.953125l0 5.15625l-1.671875 0zm6.228302 0l0 -9.859375l1.5 0l0 1.40625q1.09375 -1.625 3.140625 -1.625q0.890625 0 1.640625 0.328125q0.75 0.3125 1.109375 0.84375q0.375 0.515625 0.53125 1.21875q0.09375 0.46875 0.09375 1.625l0 6.0625l-1.671875 0l0 -6.0q0 -1.015625 -0.203125 -1.515625q-0.1875 -0.515625 -0.6875 -0.8125q-0.5 -0.296875 -1.171875 -0.296875q-1.0625 0 -1.84375 0.671875q-0.765625 0.671875 -0.765625 2.578125l0 5.375l-1.671875 0zm17.125732 -3.171875l1.71875 0.21875q-0.40625 1.5 -1.515625 2.34375q-1.09375 0.828125 -2.8125 0.828125q-2.15625 0 -3.421875 -1.328125q-1.265625 -1.328125 -1.265625 -3.734375q0 -2.484375 1.265625 -3.859375q1.28125 -1.375 3.328125 -1.375q1.984375 0 3.234375 1.34375q1.25 1.34375 1.25 3.796875q0 0.140625 -0.015625 0.4375l-7.34375 0q0.09375 1.625 0.921875 2.484375q0.828125 0.859375 2.0625 0.859375q0.90625 0 1.546875 -0.46875q0.65625 -0.484375 1.046875 -1.546875zm-5.484375 -2.703125l5.5 0q-0.109375 -1.234375 -0.625 -1.859375q-0.796875 -0.96875 -2.078125 -0.96875q-1.140625 0 -1.9375 0.78125q-0.78125 0.765625 -0.859375 2.046875zm12.766327 4.375l0.234375 1.484375q-0.703125 0.140625 -1.265625 0.140625q-0.90625 0 -1.40625 -0.28125q-0.5 -0.296875 -0.703125 -0.75q-0.203125 -0.46875 -0.203125 -1.984375l0 -5.65625l-1.234375 0l0 -1.3125l1.234375 0l0 -2.4375l1.65625 -1.0l0 3.4375l1.6875 0l0 1.3125l-1.6875 0l0 5.75q0 0.71875 0.078125 0.921875q0.09375 0.203125 0.296875 0.328125q0.203125 0.125 0.578125 0.125q0.265625 0 0.734375 -0.078125z" fill-rule="nonzero"></path><path fill="#cfe2f3" d="m738.3496 452.54053l33.375916 -53.764923l-3.2910156 49.361755l37.886414 -8.046204l-15.046936 26.493134l39.410767 7.6197815l-31.295471 21.672852l35.80597 26.094513l-42.710693 -3.225891l11.729065 47.767395l-36.989685 -33.723633l-6.9316406 48.94464l-24.345886 -44.51367l-18.355835 61.783325l-6.904724 -55.36859l-26.480164 18.44696l8.115295 -34.112976l-49.606506 6.0253906l32.165344 -26.066711l-33.375854 -29.292603l41.49115 -9.251282l-38.17334 -49.333984l62.250244 37.311035l9.325928 -37.311035z" fill-rule="nonzero"></path><path stroke="#000000" stroke-width="2.0" stroke-linejoin="round" stroke-linecap="butt" d="m738.3496 452.54053l33.375916 -53.764923l-3.2910156 49.361755l37.886414 -8.046204l-15.046936 26.493134l39.410767 7.6197815l-31.295471 21.672852l35.80597 26.094513l-42.710693 -3.225891l11.729065 47.767395l-36.989685 -33.723633l-6.9316406 48.94464l-24.345886 -44.51367l-18.355835 61.783325l-6.904724 -55.36859l-26.480164 18.44696l8.115295 -34.112976l-49.606506 6.0253906l32.165344 -26.066711l-33.375854 -29.292603l41.49115 -9.251282l-38.17334 -49.333984l62.250244 37.311035l9.325928 -37.311035z" fill-rule="nonzero"></path><path fill="#cfe2f3" d="m629.8714 498.88977l30.259644 -30.259644l0 15.129822l22.997986 0l0 -24.194641l34.273987 0l0 -12.132446l-15.129822 0l30.259644 -30.259644l30.259583 30.259644l-15.129822 0l0 12.132446l34.273987 0l0 24.194641l22.997986 0l0 -15.129822l30.259644 30.259644l-30.259644 30.259644l0 -15.129822l-22.997986 0l0 24.194641l-34.273987 0l0 12.132446l15.129822 0l-30.259583 30.259583l-30.259644 -30.259583l15.129822 0l0 -12.132446l-34.273987 0l0 -24.194641l-22.997986 0l0 15.129822z" fill-rule="nonzero"></path><path stroke="#000000" stroke-width="2.0" stroke-linejoin="round" stroke-linecap="butt" d="m629.8714 498.88977l30.259644 -30.259644l0 15.129822l22.997986 0l0 -24.194641l34.273987 0l0 -12.132446l-15.129822 0l30.259644 -30.259644l30.259583 30.259644l-15.129822 0l0 12.132446l34.273987 0l0 24.194641l22.997986 0l0 -15.129822l30.259644 30.259644l-30.259644 30.259644l0 -15.129822l-22.997986 0l0 24.194641l-34.273987 0l0 12.132446l15.129822 0l-30.259583 30.259583l-30.259644 -30.259583l15.129822 0l0 -12.132446l-34.273987 0l0 -24.194641l-22.997986 0l0 15.129822z" fill-rule="nonzero"></path><path fill="#000000" d="m714.4353 500.48163l0 -1.609375l5.765625 0l0 5.046875q-1.328125 1.0625 -2.75 1.59375q-1.40625 0.53125 -2.890625 0.53125q-2.0 0 -3.640625 -0.859375q-1.625 -0.859375 -2.46875 -2.484375q-0.828125 -1.625 -0.828125 -3.625q0 -1.984375 0.828125 -3.703125q0.828125 -1.71875 2.390625 -2.546875q1.5625 -0.84375 3.59375 -0.84375q1.46875 0 2.65625 0.484375q1.203125 0.46875 1.875 1.328125q0.671875 0.84375 1.03125 2.21875l-1.625 0.4375q-0.3125 -1.03125 -0.765625 -1.625q-0.453125 -0.59375 -1.296875 -0.953125q-0.84375 -0.359375 -1.875 -0.359375q-1.234375 0 -2.140625 0.375q-0.890625 0.375 -1.453125 1.0q-0.546875 0.609375 -0.84375 1.34375q-0.53125 1.25 -0.53125 2.734375q0 1.8125 0.625 3.046875q0.640625 1.21875 1.828125 1.8125q1.203125 0.59375 2.546875 0.59375q1.171875 0 2.28125 -0.453125q1.109375 -0.453125 1.6875 -0.953125l0 -2.53125l-4.0 0zm7.9176636 5.328125l0 -9.859375l1.5 0l0 1.5q0.578125 -1.046875 1.0625 -1.375q0.484375 -0.34375 1.078125 -0.34375q0.84375 0 1.71875 0.546875l-0.578125 1.546875q-0.609375 -0.359375 -1.234375 -0.359375q-0.546875 0 -0.984375 0.328125q-0.421875 0.328125 -0.609375 0.90625q-0.28125 0.890625 -0.28125 1.953125l0 5.15625l-1.671875 0zm12.6658325 -1.21875q-0.9375 0.796875 -1.796875 1.125q-0.859375 0.3125 -1.84375 0.3125q-1.609375 0 -2.484375 -0.78125q-0.875 -0.796875 -0.875 -2.03125q0 -0.734375 0.328125 -1.328125q0.328125 -0.59375 0.859375 -0.953125q0.53125 -0.359375 1.203125 -0.546875q0.5 -0.140625 1.484375 -0.25q2.03125 -0.25 2.984375 -0.578125q0 -0.34375 0 -0.4375q0 -1.015625 -0.46875 -1.4375q-0.640625 -0.5625 -1.90625 -0.5625q-1.171875 0 -1.734375 0.40625q-0.5625 0.40625 -0.828125 1.46875l-1.640625 -0.234375q0.234375 -1.046875 0.734375 -1.6875q0.515625 -0.640625 1.46875 -0.984375q0.96875 -0.359375 2.25 -0.359375q1.265625 0 2.046875 0.296875q0.78125 0.296875 1.15625 0.75q0.375 0.453125 0.515625 1.140625q0.09375 0.421875 0.09375 1.53125l0 2.234375q0 2.328125 0.09375 2.953125q0.109375 0.609375 0.4375 1.171875l-1.75 0q-0.265625 -0.515625 -0.328125 -1.21875zm-0.140625 -3.71875q-0.90625 0.359375 -2.734375 0.625q-1.03125 0.140625 -1.453125 0.328125q-0.421875 0.1875 -0.65625 0.546875q-0.234375 0.359375 -0.234375 0.796875q0 0.671875 0.5 1.125q0.515625 0.4375 1.484375 0.4375q0.96875 0 1.71875 -0.421875q0.75 -0.4375 1.109375 -1.15625q0.265625 -0.578125 0.265625 -1.671875l0 -0.609375zm4.0788574 8.71875l0 -13.640625l1.53125 0l0 1.28125q0.53125 -0.75 1.203125 -1.125q0.6875 -0.375 1.640625 -0.375q1.265625 0 2.234375 0.65625q0.96875 0.640625 1.453125 1.828125q0.5 1.1875 0.5 2.59375q0 1.515625 -0.546875 2.734375q-0.546875 1.203125 -1.578125 1.84375q-1.03125 0.640625 -2.171875 0.640625q-0.84375 0 -1.515625 -0.34375q-0.65625 -0.359375 -1.078125 -0.890625l0 4.796875l-1.671875 0zm1.515625 -8.65625q0 1.90625 0.765625 2.8125q0.78125 0.90625 1.875 0.90625q1.109375 0 1.890625 -0.9375q0.796875 -0.9375 0.796875 -2.921875q0 -1.875 -0.78125 -2.8125q-0.765625 -0.9375 -1.84375 -0.9375q-1.0625 0 -1.890625 1.0q-0.8125 1.0 -0.8125 2.890625zm8.860046 4.875l0 -13.59375l1.671875 0l0 4.875q1.171875 -1.359375 2.953125 -1.359375q1.09375 0 1.890625 0.4375q0.8125 0.421875 1.15625 1.1875q0.359375 0.765625 0.359375 2.203125l0 6.25l-1.671875 0l0 -6.25q0 -1.25 -0.546875 -1.8125q-0.546875 -0.578125 -1.53125 -0.578125q-0.75 0 -1.40625 0.390625q-0.640625 0.375 -0.921875 1.046875q-0.28125 0.65625 -0.28125 1.8125l0 5.390625l-1.671875 0z" fill-rule="nonzero"></path><path fill="#cfe2f3" d="m408.04504 417.3832l56.663177 0c7.8235474 0 14.165802 15.001404 14.165802 33.50656c0 18.505157 -6.3422546 33.50656 -14.165802 33.50656l-56.663177 0l0 0c-7.8235474 0 -14.1657715 -15.001404 -14.1657715 -33.50656c0 -18.505157 6.342224 -33.50656 14.1657715 -33.50656z" fill-rule="nonzero"></path><path fill="#000000" fill-opacity="0.0" d="m464.70822 484.39633c-7.8235474 0 -14.165802 -15.001404 -14.165802 -33.50656c0 -18.505157 6.3422546 -33.50656 14.165802 -33.50656" fill-rule="nonzero"></path><path fill="#000000" fill-opacity="0.0" d="m408.04504 417.3832l56.663177 0c7.8235474 0 14.165802 15.001404 14.165802 33.50656c0 18.505157 -6.3422546 33.50656 -14.165802 33.50656l-56.663177 0l0 0c-7.8235474 0 -14.1657715 -15.001404 -14.1657715 -33.50656c0 -18.505157 6.342224 -33.50656 14.1657715 -33.50656z" fill-rule="nonzero"></path><path stroke="#000000" stroke-width="2.0" stroke-linejoin="round" stroke-linecap="butt" d="m464.70822 484.39633c-7.8235474 0 -14.165802 -15.001404 -14.165802 -33.50656c0 -18.505157 6.3422546 -33.50656 14.165802 -33.50656" fill-rule="nonzero"></path><path stroke="#000000" stroke-width="2.0" stroke-linejoin="round" stroke-linecap="butt" d="m408.04504 417.3832l56.663177 0c7.8235474 0 14.165802 15.001404 14.165802 33.50656c0 18.505157 -6.3422546 33.50656 -14.165802 33.50656l-56.663177 0l0 0c-7.8235474 0 -14.1657715 -15.001404 -14.1657715 -33.50656c0 -18.505157 6.342224 -33.50656 14.1657715 -33.50656z" fill-rule="nonzero"></path><path fill="#cfe2f3" d="m424.04504 433.3832l56.663177 0c7.8235474 0 14.165802 15.001404 14.165802 33.50656c0 18.505157 -6.3422546 33.50656 -14.165802 33.50656l-56.663177 0l0 0c-7.8235474 0 -14.1657715 -15.001404 -14.1657715 -33.50656c0 -18.505157 6.342224 -33.50656 14.1657715 -33.50656z" fill-rule="nonzero"></path><path fill="#000000" fill-opacity="0.0" d="m480.70822 500.39633c-7.8235474 0 -14.165802 -15.001404 -14.165802 -33.50656c0 -18.505157 6.3422546 -33.50656 14.165802 -33.50656" fill-rule="nonzero"></path><path fill="#000000" fill-opacity="0.0" d="m424.04504 433.3832l56.663177 0c7.8235474 0 14.165802 15.001404 14.165802 33.50656c0 18.505157 -6.3422546 33.50656 -14.165802 33.50656l-56.663177 0l0 0c-7.8235474 0 -14.1657715 -15.001404 -14.1657715 -33.50656c0 -18.505157 6.342224 -33.50656 14.1657715 -33.50656z" fill-rule="nonzero"></path><path stroke="#000000" stroke-width="2.0" stroke-linejoin="round" stroke-linecap="butt" d="m480.70822 500.39633c-7.8235474 0 -14.165802 -15.001404 -14.165802 -33.50656c0 -18.505157 6.3422546 -33.50656 14.165802 -33.50656" fill-rule="nonzero"></path><path stroke="#000000" stroke-width="2.0" stroke-linejoin="round" stroke-linecap="butt" d="m424.04504 433.3832l56.663177 0c7.8235474 0 14.165802 15.001404 14.165802 33.50656c0 18.505157 -6.3422546 33.50656 -14.165802 33.50656l-56.663177 0l0 0c-7.8235474 0 -14.1657715 -15.001404 -14.1657715 -33.50656c0 -18.505157 6.342224 -33.50656 14.1657715 -33.50656z" fill-rule="nonzero"></path><path fill="#cfe2f3" d="m440.04504 449.3832l56.663177 0c7.8235474 0 14.165802 15.001404 14.165802 33.50656c0 18.505157 -6.3422546 33.50653 -14.165802 33.50653l-56.663177 0l0 0c-7.8235474 0 -14.1657715 -15.001373 -14.1657715 -33.50653c0 -18.505157 6.342224 -33.50656 14.1657715 -33.50656z" fill-rule="nonzero"></path><path fill="#000000" fill-opacity="0.0" d="m496.70822 516.3963c-7.8235474 0 -14.165802 -15.001373 -14.165802 -33.50653c0 -18.505157 6.3422546 -33.50656 14.165802 -33.50656" fill-rule="nonzero"></path><path fill="#000000" fill-opacity="0.0" d="m440.04504 449.3832l56.663177 0c7.8235474 0 14.165802 15.001404 14.165802 33.50656c0 18.505157 -6.3422546 33.50653 -14.165802 33.50653l-56.663177 0l0 0c-7.8235474 0 -14.1657715 -15.001373 -14.1657715 -33.50653c0 -18.505157 6.342224 -33.50656 14.1657715 -33.50656z" fill-rule="nonzero"></path><path stroke="#000000" stroke-width="2.0" stroke-linejoin="round" stroke-linecap="butt" d="m496.70822 516.3963c-7.8235474 0 -14.165802 -15.001373 -14.165802 -33.50653c0 -18.505157 6.3422546 -33.50656 14.165802 -33.50656" fill-rule="nonzero"></path><path stroke="#000000" stroke-width="2.0" stroke-linejoin="round" stroke-linecap="butt" d="m440.04504 449.3832l56.663177 0c7.8235474 0 14.165802 15.001404 14.165802 33.50656c0 18.505157 -6.3422546 33.50653 -14.165802 33.50653l-56.663177 0l0 0c-7.8235474 0 -14.1657715 -15.001373 -14.1657715 -33.50653c0 -18.505157 6.342224 -33.50656 14.1657715 -33.50656z" fill-rule="nonzero"></path><path fill="#cfe2f3" d="m456.04504 465.3832l56.663208 0c7.8235474 0 14.1657715 15.001404 14.1657715 33.50656c0 18.505188 -6.342224 33.50653 -14.1657715 33.50653l-56.663208 0l0 0c-7.8235474 0 -14.1657715 -15.001343 -14.1657715 -33.50653c0 -18.505157 6.342224 -33.50656 14.1657715 -33.50656z" fill-rule="nonzero"></path><path fill="#000000" fill-opacity="0.0" d="m512.70825 532.3963c-7.823578 0 -14.1658325 -15.001343 -14.1658325 -33.50653c0 -18.505157 6.3422546 -33.50656 14.1658325 -33.50656" fill-rule="nonzero"></path><path fill="#000000" fill-opacity="0.0" d="m456.04504 465.3832l56.663208 0c7.8235474 0 14.1657715 15.001404 14.1657715 33.50656c0 18.505188 -6.342224 33.50653 -14.1657715 33.50653l-56.663208 0l0 0c-7.8235474 0 -14.1657715 -15.001343 -14.1657715 -33.50653c0 -18.505157 6.342224 -33.50656 14.1657715 -33.50656z" fill-rule="nonzero"></path><path stroke="#000000" stroke-width="2.0" stroke-linejoin="round" stroke-linecap="butt" d="m512.70825 532.3963c-7.823578 0 -14.1658325 -15.001343 -14.1658325 -33.50653c0 -18.505157 6.3422546 -33.50656 14.1658325 -33.50656" fill-rule="nonzero"></path><path stroke="#000000" stroke-width="2.0" stroke-linejoin="round" stroke-linecap="butt" d="m456.04504 465.3832l56.663208 0c7.8235474 0 14.1657715 15.001404 14.1657715 33.50656c0 18.505188 -6.342224 33.50653 -14.1657715 33.50653l-56.663208 0l0 0c-7.8235474 0 -14.1657715 -15.001343 -14.1657715 -33.50653c0 -18.505157 6.342224 -33.50656 14.1657715 -33.50656z" fill-rule="nonzero"></path><path fill="#cfe2f3" d="m472.04504 481.3832l56.663208 0c7.8235474 0 14.1657715 15.001404 14.1657715 33.50656c0 18.505188 -6.342224 33.50653 -14.1657715 33.50653l-56.663208 0l0 0c-7.8235474 0 -14.1657715 -15.001343 -14.1657715 -33.50653c0 -18.505157 6.342224 -33.50656 14.1657715 -33.50656z" fill-rule="nonzero"></path><path fill="#000000" fill-opacity="0.0" d="m528.70825 548.3963c-7.8236084 0 -14.1658325 -15.001343 -14.1658325 -33.50653c0 -18.505157 6.342224 -33.50656 14.1658325 -33.50656" fill-rule="nonzero"></path><path fill="#000000" fill-opacity="0.0" d="m472.04504 481.3832l56.663208 0c7.8235474 0 14.1657715 15.001404 14.1657715 33.50656c0 18.505188 -6.342224 33.50653 -14.1657715 33.50653l-56.663208 0l0 0c-7.8235474 0 -14.1657715 -15.001343 -14.1657715 -33.50653c0 -18.505157 6.342224 -33.50656 14.1657715 -33.50656z" fill-rule="nonzero"></path><path stroke="#000000" stroke-width="2.0" stroke-linejoin="round" stroke-linecap="butt" d="m528.70825 548.3963c-7.8236084 0 -14.1658325 -15.001343 -14.1658325 -33.50653c0 -18.505157 6.342224 -33.50656 14.1658325 -33.50656" fill-rule="nonzero"></path><path stroke="#000000" stroke-width="2.0" stroke-linejoin="round" stroke-linecap="butt" d="m472.04504 481.3832l56.663208 0c7.8235474 0 14.1657715 15.001404 14.1657715 33.50656c0 18.505188 -6.342224 33.50653 -14.1657715 33.50653l-56.663208 0l0 0c-7.8235474 0 -14.1657715 -15.001343 -14.1657715 -33.50653c0 -18.505157 6.342224 -33.50656 14.1657715 -33.50656z" fill-rule="nonzero"></path><path fill="#cfe2f3" d="m488.04504 497.3832l56.663208 0c7.8235474 0 14.1657715 15.001373 14.1657715 33.50656c0 18.505188 -6.342224 33.50653 -14.1657715 33.50653l-56.663208 0l0 0c-7.8235474 0 -14.1657715 -15.001343 -14.1657715 -33.50653c0 -18.505188 6.342224 -33.50656 14.1657715 -33.50656z" fill-rule="nonzero"></path><path fill="#000000" fill-opacity="0.0" d="m544.70825 564.3963c-7.8236084 0 -14.1658325 -15.001343 -14.1658325 -33.50653c0 -18.505188 6.342224 -33.50656 14.1658325 -33.50656" fill-rule="nonzero"></path><path fill="#000000" fill-opacity="0.0" d="m488.04504 497.3832l56.663208 0c7.8235474 0 14.1657715 15.001373 14.1657715 33.50656c0 18.505188 -6.342224 33.50653 -14.1657715 33.50653l-56.663208 0l0 0c-7.8235474 0 -14.1657715 -15.001343 -14.1657715 -33.50653c0 -18.505188 6.342224 -33.50656 14.1657715 -33.50656z" fill-rule="nonzero"></path><path stroke="#000000" stroke-width="2.0" stroke-linejoin="round" stroke-linecap="butt" d="m544.70825 564.3963c-7.8236084 0 -14.1658325 -15.001343 -14.1658325 -33.50653c0 -18.505188 6.342224 -33.50656 14.1658325 -33.50656" fill-rule="nonzero"></path><path stroke="#000000" stroke-width="2.0" stroke-linejoin="round" stroke-linecap="butt" d="m488.04504 497.3832l56.663208 0c7.8235474 0 14.1657715 15.001373 14.1657715 33.50656c0 18.505188 -6.342224 33.50653 -14.1657715 33.50653l-56.663208 0l0 0c-7.8235474 0 -14.1657715 -15.001343 -14.1657715 -33.50653c0 -18.505188 6.342224 -33.50656 14.1657715 -33.50656z" fill-rule="nonzero"></path><path fill="#cfe2f3" d="m504.04504 513.3832l56.663208 0c7.8235474 0 14.1657715 15.001404 14.1657715 33.50659c0 18.505188 -6.342224 33.50653 -14.1657715 33.50653l-56.663208 0l0 0c-7.8235474 0 -14.1657715 -15.001343 -14.1657715 -33.50653c0 -18.505188 6.342224 -33.50659 14.1657715 -33.50659z" fill-rule="nonzero"></path><path fill="#000000" fill-opacity="0.0" d="m560.70825 580.3963c-7.8236084 0 -14.1658325 -15.001343 -14.1658325 -33.50653c0 -18.505188 6.342224 -33.50659 14.1658325 -33.50659" fill-rule="nonzero"></path><path fill="#000000" fill-opacity="0.0" d="m504.04504 513.3832l56.663208 0c7.8235474 0 14.1657715 15.001404 14.1657715 33.50659c0 18.505188 -6.342224 33.50653 -14.1657715 33.50653l-56.663208 0l0 0c-7.8235474 0 -14.1657715 -15.001343 -14.1657715 -33.50653c0 -18.505188 6.342224 -33.50659 14.1657715 -33.50659z" fill-rule="nonzero"></path><path stroke="#000000" stroke-width="2.0" stroke-linejoin="round" stroke-linecap="butt" d="m560.70825 580.3963c-7.8236084 0 -14.1658325 -15.001343 -14.1658325 -33.50653c0 -18.505188 6.342224 -33.50659 14.1658325 -33.50659" fill-rule="nonzero"></path><path stroke="#000000" stroke-width="2.0" stroke-linejoin="round" stroke-linecap="butt" d="m504.04504 513.3832l56.663208 0c7.8235474 0 14.1657715 15.001404 14.1657715 33.50659c0 18.505188 -6.342224 33.50653 -14.1657715 33.50653l-56.663208 0l0 0c-7.8235474 0 -14.1657715 -15.001343 -14.1657715 -33.50653c0 -18.505188 6.342224 -33.50659 14.1657715 -33.50659z" fill-rule="nonzero"></path><path fill="#cfe2f3" d="m399.94357 465.3819l94.92914 0l0 107.87665l-94.92914 0z" fill-rule="nonzero"></path><path fill="#000000" fill-opacity="0.0" d="m411.80972 465.3819l0 107.87665m-11.86615 -94.39209l94.92914 0" fill-rule="nonzero"></path><path fill="#000000" fill-opacity="0.0" d="m399.94357 465.3819l94.92914 0l0 107.87665l-94.92914 0z" fill-rule="nonzero"></path><path stroke="#000000" stroke-width="2.0" stroke-linejoin="round" stroke-linecap="butt" d="m411.80972 465.3819l0 107.87665m-11.86615 -94.39209l94.92914 0" fill-rule="nonzero"></path><path stroke="#000000" stroke-width="2.0" stroke-linejoin="round" stroke-linecap="butt" d="m399.94357 465.3819l94.92914 0l0 107.87665l-94.92914 0z" fill-rule="nonzero"></path><path fill="#000000" d="m422.30972 532.9825l0 -13.59375l9.84375 0l0 1.59375l-8.046875 0l0 4.171875l7.53125 0l0 1.59375l-7.53125 0l0 4.625l8.359375 0l0 1.609375l-10.15625 0zm14.927948 0l-3.75 -9.859375l1.765625 0l2.125 5.90625q0.34375 0.953125 0.625 1.984375q0.21875 -0.78125 0.625 -1.875l2.1875 -6.015625l1.71875 0l-3.734375 9.859375l-1.5625 0zm13.34375 -3.171875l1.71875 0.21875q-0.40625 1.5 -1.515625 2.34375q-1.09375 0.828125 -2.8125 0.828125q-2.15625 0 -3.421875 -1.328125q-1.265625 -1.328125 -1.265625 -3.734375q0 -2.484375 1.265625 -3.859375q1.28125 -1.375 3.328125 -1.375q1.984375 0 3.234375 1.34375q1.25 1.34375 1.25 3.796875q0 0.140625 -0.015625 0.4375l-7.34375 0q0.09375 1.625 0.921875 2.484375q0.828125 0.859375 2.0625 0.859375q0.90625 0 1.546875 -0.46875q0.65625 -0.484375 1.046875 -1.546875zm-5.484375 -2.703125l5.5 0q-0.109375 -1.234375 -0.625 -1.859375q-0.796875 -0.96875 -2.078125 -0.96875q-1.140625 0 -1.9375 0.78125q-0.78125 0.765625 -0.859375 2.046875zm9.110077 5.875l0 -9.859375l1.5 0l0 1.40625q1.09375 -1.625 3.140625 -1.625q0.890625 0 1.640625 0.328125q0.75 0.3125 1.109375 0.84375q0.375 0.515625 0.53125 1.21875q0.09375 0.46875 0.09375 1.625l0 6.0625l-1.671875 0l0 -6.0q0 -1.015625 -0.203125 -1.515625q-0.1875 -0.515625 -0.6875 -0.8125q-0.5 -0.296875 -1.171875 -0.296875q-1.0625 0 -1.84375 0.671875q-0.765625 0.671875 -0.765625 2.578125l0 5.375l-1.671875 0zm14.031982 -1.5l0.234375 1.484375q-0.703125 0.140625 -1.265625 0.140625q-0.90625 0 -1.40625 -0.28125q-0.5 -0.296875 -0.703125 -0.75q-0.203125 -0.46875 -0.203125 -1.984375l0 -5.65625l-1.234375 0l0 -1.3125l1.234375 0l0 -2.4375l1.65625 -1.0l0 3.4375l1.6875 0l0 1.3125l-1.6875 0l0 5.75q0 0.71875 0.078125 0.921875q0.09375 0.203125 0.296875 0.328125q0.203125 0.125 0.578125 0.125q0.265625 0 0.734375 -0.078125z" fill-rule="nonzero"></path><path fill="#000000" fill-opacity="0.0" d="m111.92388 348.18747c31.000404 1.821167 61.515633 8.5859375 92.35171 12.257233c61.44261 7.315216 123.86391 1.254364 185.51445 6.5380554c54.637543 4.6826477 109.516205 12.065613 164.2677 8.989502c55.05194 -3.092987 109.196594 -17.846954 161.81628 -34.322845c28.096802 -8.797455 60.63916 -13.450287 88.265076 -3.2703247c12.046631 4.439087 27.69873 20.519104 36.776917 11.4409485" fill-rule="evenodd"></path><path stroke="#000000" stroke-width="2.0" stroke-linejoin="round" stroke-linecap="butt" d="m111.92388 348.18747c31.000404 1.821167 61.515633 8.5859375 92.35171 12.257233c61.44261 7.315216 123.86391 1.254364 185.51445 6.5380554c54.637543 4.6826477 109.516205 12.065613 164.2677 8.989502c55.05194 -3.092987 109.196594 -17.846954 161.81628 -34.322845c28.096802 -8.797455 60.63916 -13.450287 88.265076 -3.2703247c12.046631 4.439087 27.69873 20.519104 36.776917 11.4409485" fill-rule="evenodd"></path><path fill="#cfe2f3" d="m361.7874 248.90158l245.17584 0l0 88.79526l-245.17584 0z" fill-rule="nonzero"></path><path fill="#000000" fill-opacity="0.0" d="m392.4344 248.90158l0 88.79526m183.8819 -88.79526l0 88.79526" fill-rule="nonzero"></path><path fill="#000000" fill-opacity="0.0" d="m361.7874 248.90158l245.17584 0l0 88.79526l-245.17584 0z" fill-rule="nonzero"></path><path stroke="#000000" stroke-width="2.0" stroke-linejoin="round" stroke-linecap="butt" d="m392.4344 248.90158l0 88.79526m183.8819 -88.79526l0 88.79526" fill-rule="nonzero"></path><path stroke="#000000" stroke-width="2.0" stroke-linejoin="round" stroke-linecap="butt" d="m361.7874 248.90158l245.17584 0l0 88.79526l-245.17584 0z" fill-rule="nonzero"></path><path fill="#000000" d="m455.67896 266.8442l1.6875 -0.140625q0.125 1.015625 0.5625 1.671875q0.4375 0.65625 1.359375 1.0625q0.9375 0.40625 2.09375 0.40625q1.03125 0 1.8125 -0.3125q0.796875 -0.3125 1.1875 -0.84375q0.390625 -0.53125 0.390625 -1.15625q0 -0.640625 -0.375 -1.109375q-0.375 -0.484375 -1.234375 -0.8125q-0.546875 -0.21875 -2.421875 -0.65625q-1.875 -0.453125 -2.625 -0.859375q-0.96875 -0.515625 -1.453125 -1.265625q-0.46875 -0.75 -0.46875 -1.6875q0 -1.03125 0.578125 -1.921875q0.59375 -0.90625 1.703125 -1.359375q1.125 -0.46875 2.5 -0.46875q1.515625 0 2.671875 0.484375q1.15625 0.484375 1.765625 1.4375q0.625 0.9375 0.671875 2.140625l-1.71875 0.125q-0.140625 -1.28125 -0.953125 -1.9375q-0.796875 -0.671875 -2.359375 -0.671875q-1.625 0 -2.375 0.609375q-0.75 0.59375 -0.75 1.4375q0 0.734375 0.53125 1.203125q0.515625 0.46875 2.703125 0.96875q2.203125 0.5 3.015625 0.875q1.1875 0.546875 1.75 1.390625q0.578125 0.828125 0.578125 1.921875q0 1.09375 -0.625 2.0625q-0.625 0.953125 -1.796875 1.484375q-1.15625 0.53125 -2.609375 0.53125q-1.84375 0 -3.09375 -0.53125q-1.25 -0.546875 -1.96875 -1.625q-0.703125 -1.078125 -0.734375 -2.453125zm16.490448 2.875l0.234375 1.484375q-0.703125 0.140625 -1.265625 0.140625q-0.90625 0 -1.40625 -0.28125q-0.5 -0.296875 -0.703125 -0.75q-0.203125 -0.46875 -0.203125 -1.984375l0 -5.65625l-1.234375 0l0 -1.3125l1.234375 0l0 -2.4375l1.65625 -1.0l0 3.4375l1.6875 0l0 1.3125l-1.6875 0l0 5.75q0 0.71875 0.078125 0.921875q0.09375 0.203125 0.296875 0.328125q0.203125 0.125 0.578125 0.125q0.265625 0 0.734375 -0.078125zm0.9020386 -3.421875q0 -2.734375 1.53125 -4.0625q1.265625 -1.09375 3.09375 -1.09375q2.03125 0 3.3125 1.34375q1.296875 1.328125 1.296875 3.671875q0 1.90625 -0.578125 3.0q-0.5625 1.078125 -1.65625 1.6875q-1.078125 0.59375 -2.375 0.59375q-2.0625 0 -3.34375 -1.328125q-1.28125 -1.328125 -1.28125 -3.8125zm1.71875 0q0 1.890625 0.828125 2.828125q0.828125 0.9375 2.078125 0.9375q1.25 0 2.0625 -0.9375q0.828125 -0.953125 0.828125 -2.890625q0 -1.828125 -0.828125 -2.765625q-0.828125 -0.9375 -2.0625 -0.9375q-1.25 0 -2.078125 0.9375q-0.828125 0.9375 -0.828125 2.828125zm9.266357 4.921875l0 -9.859375l1.5 0l0 1.5q0.578125 -1.046875 1.0625 -1.375q0.484375 -0.34375 1.078125 -0.34375q0.84375 0 1.71875 0.546875l-0.578125 1.546875q-0.609375 -0.359375 -1.234375 -0.359375q-0.546875 0 -0.984375 0.328125q-0.421875 0.328125 -0.609375 0.90625q-0.28125 0.890625 -0.28125 1.953125l0 5.15625l-1.671875 0zm5.931427 0.8125l1.609375 0.25q0.109375 0.75 0.578125 1.09375q0.609375 0.453125 1.6875 0.453125q1.171875 0 1.796875 -0.46875q0.625 -0.453125 0.859375 -1.28125q0.125 -0.515625 0.109375 -2.15625q-1.09375 1.296875 -2.71875 1.296875q-2.03125 0 -3.15625 -1.46875q-1.109375 -1.46875 -1.109375 -3.515625q0 -1.40625 0.515625 -2.59375q0.515625 -1.203125 1.484375 -1.84375q0.96875 -0.65625 2.265625 -0.65625q1.75 0 2.875 1.40625l0 -1.1875l1.546875 0l0 8.515625q0 2.3125 -0.46875 3.265625q-0.46875 0.96875 -1.484375 1.515625q-1.015625 0.5625 -2.5 0.5625q-1.765625 0 -2.859375 -0.796875q-1.078125 -0.796875 -1.03125 -2.390625zm1.375 -5.921875q0 1.953125 0.765625 2.84375q0.78125 0.890625 1.9375 0.890625q1.140625 0 1.921875 -0.890625q0.78125 -0.890625 0.78125 -2.78125q0 -1.8125 -0.8125 -2.71875q-0.796875 -0.921875 -1.921875 -0.921875q-1.109375 0 -1.890625 0.90625q-0.78125 0.890625 -0.78125 2.671875zm9.313202 -6.578125l0 -1.90625l1.671875 0l0 1.90625l-1.671875 0zm0 11.6875l0 -9.859375l1.671875 0l0 9.859375l-1.671875 0zm10.879211 -3.171875l1.7187195 0.21875q-0.40625 1.5 -1.5155945 2.34375q-1.09375 0.828125 -2.8125 0.828125q-2.15625 0 -3.421875 -1.328125q-1.265625 -1.328125 -1.265625 -3.734375q0 -2.484375 1.265625 -3.859375q1.28125 -1.375 3.328125 -1.375q1.984375 0 3.2343445 1.34375q1.25 1.34375 1.25 3.796875q0 0.140625 -0.015625 0.4375l-7.3437195 0q0.09375 1.625 0.921875 2.484375q0.828125 0.859375 2.0625 0.859375q0.90625 0 1.546875 -0.46875q0.65625 -0.484375 1.046875 -1.546875zm-5.484375 -2.703125l5.5 0q-0.109375 -1.234375 -0.625 -1.859375q-0.796875 -0.96875 -2.078125 -0.96875q-1.140625 0 -1.9375 0.78125q-0.78125 0.765625 -0.859375 2.046875z" fill-rule="nonzero"></path><path fill="#000000" d="m483.37714 302.8167l-3.546875 -2.75q1.6875 -1.890625 3.515625 -3.625q0.734375 -0.703125 0.921875 -0.890625q-0.59375 -0.09375 -3.359375 -0.78125q-1.984375 -0.484375 -2.625 -0.71875l1.390625 -4.125q3.0625 1.234375 5.484375 2.734375q-0.5625 -3.8125 -0.5625 -6.234375l4.171875 0q0 1.71875 -0.640625 6.28125q0.46875 -0.1875 2.015625 -0.90625q2.109375 -0.96875 3.890625 -1.640625l1.25 4.234375q-2.609375 0.59375 -6.03125 1.15625l2.8125 3.15625q0.84375 0.96875 1.34375 1.578125l-3.59375 2.359375l-3.15625 -5.21875q-1.4375 2.53125 -3.28125 5.390625z" fill-rule="nonzero"></path><path fill="#000000" fill-opacity="0.0" d="m629.8714 264.0092l218.20471 0l0 39.24411l-218.20471 0z" fill-rule="nonzero"></path><path fill="#000000" d="m639.46515 279.81982l0.421875 -1.3125q1.484375 0.515625 2.140625 0.90625q-0.171875 -1.6875 -0.171875 -2.3125l1.34375 0q-0.03125 0.90625 -0.21875 2.296875q0.953125 -0.484375 2.1875 -0.890625l0.421875 1.3125q-1.171875 0.390625 -2.296875 0.53125q0.5625 0.484375 1.59375 1.75l-1.109375 0.78125q-0.546875 -0.734375 -1.28125 -1.984375q-0.6875 1.296875 -1.203125 1.984375l-1.09375 -0.78125q1.078125 -1.328125 1.53125 -1.75q-1.1875 -0.234375 -2.265625 -0.53125zm13.2404175 11.109375l0 -13.59375l5.109375 0q1.546875 0 2.484375 0.40625q0.953125 0.40625 1.484375 1.265625q0.53125 0.859375 0.53125 1.796875q0 0.875 -0.46875 1.65625q-0.46875 0.765625 -1.4375 1.234375q1.234375 0.359375 1.890625 1.234375q0.671875 0.875 0.671875 2.0625q0 0.953125 -0.40625 1.78125q-0.390625 0.8125 -0.984375 1.265625q-0.59375 0.4375 -1.5 0.671875q-0.890625 0.21875 -2.1875 0.21875l-5.1875 0zm1.796875 -7.890625l2.9375 0q1.203125 0 1.71875 -0.15625q0.6875 -0.203125 1.03125 -0.671875q0.359375 -0.46875 0.359375 -1.1875q0 -0.671875 -0.328125 -1.1875q-0.328125 -0.515625 -0.9375 -0.703125q-0.59375 -0.203125 -2.0625 -0.203125l-2.71875 0l0 4.109375zm0 6.28125l3.390625 0q0.875 0 1.21875 -0.0625q0.625 -0.109375 1.046875 -0.359375q0.421875 -0.265625 0.6875 -0.765625q0.265625 -0.5 0.265625 -1.140625q0 -0.765625 -0.390625 -1.328125q-0.390625 -0.5625 -1.078125 -0.78125q-0.6875 -0.234375 -1.984375 -0.234375l-3.15625 0l0 4.671875zm16.943604 0.390625q-0.9375 0.796875 -1.796875 1.125q-0.859375 0.3125 -1.84375 0.3125q-1.609375 0 -2.484375 -0.78125q-0.875 -0.796875 -0.875 -2.03125q0 -0.734375 0.328125 -1.328125q0.328125 -0.59375 0.859375 -0.953125q0.53125 -0.359375 1.203125 -0.546875q0.5 -0.140625 1.484375 -0.25q2.03125 -0.25 2.984375 -0.578125q0 -0.34375 0 -0.4375q0 -1.015625 -0.46875 -1.4375q-0.640625 -0.5625 -1.90625 -0.5625q-1.171875 0 -1.734375 0.40625q-0.5625 0.40625 -0.828125 1.46875l-1.640625 -0.234375q0.234375 -1.046875 0.734375 -1.6875q0.515625 -0.640625 1.46875 -0.984375q0.96875 -0.359375 2.25 -0.359375q1.265625 0 2.046875 0.296875q0.78125 0.296875 1.15625 0.75q0.375 0.453125 0.515625 1.140625q0.09375 0.421875 0.09375 1.53125l0 2.234375q0 2.328125 0.09375 2.953125q0.109375 0.609375 0.4375 1.171875l-1.75 0q-0.265625 -0.515625 -0.328125 -1.21875zm-0.140625 -3.71875q-0.90625 0.359375 -2.734375 0.625q-1.03125 0.140625 -1.453125 0.328125q-0.421875 0.1875 -0.65625 0.546875q-0.234375 0.359375 -0.234375 0.796875q0 0.671875 0.5 1.125q0.515625 0.4375 1.484375 0.4375q0.96875 0 1.71875 -0.421875q0.75 -0.4375 1.109375 -1.15625q0.265625 -0.578125 0.265625 -1.671875l0 -0.609375zm3.4069824 2.0l1.65625 -0.265625q0.140625 1.0 0.765625 1.53125q0.640625 0.515625 1.78125 0.515625q1.15625 0 1.703125 -0.46875q0.5625 -0.46875 0.5625 -1.09375q0 -0.5625 -0.484375 -0.890625q-0.34375 -0.21875 -1.703125 -0.5625q-1.84375 -0.46875 -2.5625 -0.796875q-0.703125 -0.34375 -1.078125 -0.9375q-0.359375 -0.609375 -0.359375 -1.328125q0 -0.65625 0.296875 -1.21875q0.3125 -0.5625 0.828125 -0.9375q0.390625 -0.28125 1.0625 -0.484375q0.671875 -0.203125 1.4375 -0.203125q1.171875 0 2.046875 0.34375q0.875 0.328125 1.28125 0.90625q0.421875 0.5625 0.578125 1.515625l-1.625 0.21875q-0.109375 -0.75 -0.65625 -1.171875q-0.53125 -0.4375 -1.5 -0.4375q-1.15625 0 -1.640625 0.390625q-0.484375 0.375 -0.484375 0.875q0 0.328125 0.203125 0.59375q0.203125 0.265625 0.640625 0.4375q0.25 0.09375 1.46875 0.4375q1.765625 0.46875 2.46875 0.765625q0.703125 0.296875 1.09375 0.875q0.40625 0.578125 0.40625 1.4375q0 0.828125 -0.484375 1.578125q-0.484375 0.734375 -1.40625 1.140625q-0.921875 0.390625 -2.078125 0.390625q-1.921875 0 -2.9375 -0.796875q-1.0 -0.796875 -1.28125 -2.359375zm10.015625 -8.75l0 -1.90625l1.671875 0l0 1.90625l-1.671875 0zm0 11.6875l0 -9.859375l1.671875 0l0 9.859375l-1.671875 0zm10.56665 -3.609375l1.640625 0.21875q-0.265625 1.6875 -1.375 2.65625q-1.109375 0.953125 -2.734375 0.953125q-2.015625 0 -3.25 -1.3125q-1.21875 -1.328125 -1.21875 -3.796875q0 -1.59375 0.515625 -2.78125q0.53125 -1.203125 1.609375 -1.796875q1.09375 -0.609375 2.359375 -0.609375q1.609375 0 2.625 0.8125q1.015625 0.8125 1.3125 2.3125l-1.625 0.25q-0.234375 -1.0 -0.828125 -1.5q-0.59375 -0.5 -1.421875 -0.5q-1.265625 0 -2.0625 0.90625q-0.78125 0.90625 -0.78125 2.859375q0 1.984375 0.765625 2.890625q0.765625 0.890625 1.984375 0.890625q0.984375 0 1.640625 -0.59375q0.65625 -0.609375 0.84375 -1.859375zm7.4020996 0.671875l1.65625 -0.265625q0.140625 1.0 0.765625 1.53125q0.640625 0.515625 1.78125 0.515625q1.15625 0 1.703125 -0.46875q0.5625 -0.46875 0.5625 -1.09375q0 -0.5625 -0.484375 -0.890625q-0.34375 -0.21875 -1.703125 -0.5625q-1.84375 -0.46875 -2.5625 -0.796875q-0.703125 -0.34375 -1.078125 -0.9375q-0.359375 -0.609375 -0.359375 -1.328125q0 -0.65625 0.296875 -1.21875q0.3125 -0.5625 0.828125 -0.9375q0.390625 -0.28125 1.0625 -0.484375q0.671875 -0.203125 1.4375 -0.203125q1.171875 0 2.046875 0.34375q0.875 0.328125 1.28125 0.90625q0.421875 0.5625 0.578125 1.515625l-1.625 0.21875q-0.109375 -0.75 -0.65625 -1.171875q-0.53125 -0.4375 -1.5 -0.4375q-1.15625 0 -1.640625 0.390625q-0.484375 0.375 -0.484375 0.875q0 0.328125 0.203125 0.59375q0.203125 0.265625 0.640625 0.4375q0.25 0.09375 1.46875 0.4375q1.765625 0.46875 2.46875 0.765625q0.703125 0.296875 1.09375 0.875q0.40625 0.578125 0.40625 1.4375q0 0.828125 -0.484375 1.578125q-0.484375 0.734375 -1.40625 1.140625q-0.921875 0.390625 -2.078125 0.390625q-1.921875 0 -2.9375 -0.796875q-1.0 -0.796875 -1.28125 -2.359375zm16.4375 -0.671875l1.640625 0.21875q-0.265625 1.6875 -1.375 2.65625q-1.109375 0.953125 -2.734375 0.953125q-2.015625 0 -3.25 -1.3125q-1.21875 -1.328125 -1.21875 -3.796875q0 -1.59375 0.515625 -2.78125q0.53125 -1.203125 1.609375 -1.796875q1.09375 -0.609375 2.359375 -0.609375q1.609375 0 2.625 0.8125q1.015625 0.8125 1.3125 2.3125l-1.625 0.25q-0.234375 -1.0 -0.828125 -1.5q-0.59375 -0.5 -1.421875 -0.5q-1.265625 0 -2.0625 0.90625q-0.78125 0.90625 -0.78125 2.859375q0 1.984375 0.765625 2.890625q0.765625 0.890625 1.984375 0.890625q0.984375 0 1.640625 -0.59375q0.65625 -0.609375 0.84375 -1.859375zm2.890625 3.609375l0 -13.59375l1.671875 0l0 4.875q1.171875 -1.359375 2.953125 -1.359375q1.09375 0 1.890625 0.4375q0.8125 0.421875 1.15625 1.1875q0.359375 0.765625 0.359375 2.203125l0 6.25l-1.671875 0l0 -6.25q0 -1.25 -0.546875 -1.8125q-0.546875 -0.578125 -1.53125 -0.578125q-0.75 0 -1.40625 0.390625q-0.640625 0.375 -0.921875 1.046875q-0.28125 0.65625 -0.28125 1.8125l0 5.390625l-1.671875 0zm17.125671 -3.171875l1.71875 0.21875q-0.40625 1.5 -1.515625 2.34375q-1.09375 0.828125 -2.8125 0.828125q-2.15625 0 -3.421875 -1.328125q-1.265625 -1.328125 -1.265625 -3.734375q0 -2.484375 1.265625 -3.859375q1.28125 -1.375 3.328125 -1.375q1.984375 0 3.234375 1.34375q1.25 1.34375 1.25 3.796875q0 0.140625 -0.015625 0.4375l-7.34375 0q0.09375 1.625 0.921875 2.484375q0.828125 0.859375 2.0625 0.859375q0.90625 0 1.546875 -0.46875q0.65625 -0.484375 1.046875 -1.546875zm-5.484375 -2.703125l5.5 0q-0.109375 -1.234375 -0.625 -1.859375q-0.796875 -0.96875 -2.078125 -0.96875q-1.140625 0 -1.9375 0.78125q-0.78125 0.765625 -0.859375 2.046875zm9.110107 5.875l0 -9.859375l1.5 0l0 1.390625q0.453125 -0.71875 1.21875 -1.15625q0.78125 -0.453125 1.765625 -0.453125q1.09375 0 1.796875 0.453125q0.703125 0.453125 0.984375 1.28125q1.171875 -1.734375 3.046875 -1.734375q1.46875 0 2.25 0.8125q0.796875 0.8125 0.796875 2.5l0 6.765625l-1.671875 0l0 -6.203125q0 -1.0 -0.15625 -1.4375q-0.15625 -0.453125 -0.59375 -0.71875q-0.421875 -0.265625 -1.0 -0.265625q-1.03125 0 -1.71875 0.6875q-0.6875 0.6875 -0.6875 2.21875l0 5.71875l-1.671875 0l0 -6.40625q0 -1.109375 -0.40625 -1.65625q-0.40625 -0.5625 -1.34375 -0.5625q-0.703125 0 -1.3125 0.375q-0.59375 0.359375 -0.859375 1.078125q-0.265625 0.71875 -0.265625 2.0625l0 5.109375l-1.671875 0zm21.978333 -1.21875q-0.9375 0.796875 -1.796875 1.125q-0.859375 0.3125 -1.84375 0.3125q-1.609375 0 -2.484375 -0.78125q-0.875 -0.796875 -0.875 -2.03125q0 -0.734375 0.328125 -1.328125q0.328125 -0.59375 0.859375 -0.953125q0.53125 -0.359375 1.203125 -0.546875q0.5 -0.140625 1.484375 -0.25q2.03125 -0.25 2.984375 -0.578125q0 -0.34375 0 -0.4375q0 -1.015625 -0.46875 -1.4375q-0.640625 -0.5625 -1.90625 -0.5625q-1.171875 0 -1.734375 0.40625q-0.5625 0.40625 -0.828125 1.46875l-1.640625 -0.234375q0.234375 -1.046875 0.734375 -1.6875q0.515625 -0.640625 1.46875 -0.984375q0.96875 -0.359375 2.25 -0.359375q1.265625 0 2.046875 0.296875q0.78125 0.296875 1.15625 0.75q0.375 0.453125 0.515625 1.140625q0.09375 0.421875 0.09375 1.53125l0 2.234375q0 2.328125 0.09375 2.953125q0.109375 0.609375 0.4375 1.171875l-1.75 0q-0.265625 -0.515625 -0.328125 -1.21875zm-0.140625 -3.71875q-0.90625 0.359375 -2.734375 0.625q-1.03125 0.140625 -1.453125 0.328125q-0.421875 0.1875 -0.65625 0.546875q-0.234375 0.359375 -0.234375 0.796875q0 0.671875 0.5 1.125q0.515625 0.4375 1.484375 0.4375q0.96875 0 1.71875 -0.421875q0.75 -0.4375 1.109375 -1.15625q0.265625 -0.578125 0.265625 -1.671875l0 -0.609375zm12.918396 3.4375l0.234375 1.484375q-0.703125 0.140625 -1.265625 0.140625q-0.90625 0 -1.40625 -0.28125q-0.5 -0.296875 -0.703125 -0.75q-0.203125 -0.46875 -0.203125 -1.984375l0 -5.65625l-1.234375 0l0 -1.3125l1.234375 0l0 -2.4375l1.65625 -1.0l0 3.4375l1.6875 0l0 1.3125l-1.6875 0l0 5.75q0 0.71875 0.078125 0.921875q0.09375 0.203125 0.296875 0.328125q0.203125 0.125 0.578125 0.125q0.265625 0 0.734375 -0.078125zm1.4489136 5.296875l-0.171875 -1.5625q0.546875 0.140625 0.953125 0.140625q0.546875 0 0.875 -0.1875q0.34375 -0.1875 0.5625 -0.515625q0.15625 -0.25 0.5 -1.25q0.046875 -0.140625 0.15625 -0.40625l-3.734375 -9.875l1.796875 0l2.046875 5.71875q0.40625 1.078125 0.71875 2.28125q0.28125 -1.15625 0.6875 -2.25l2.09375 -5.75l1.671875 0l-3.75 10.03125q-0.59375 1.625 -0.9375 2.234375q-0.4375 0.828125 -1.015625 1.203125q-0.578125 0.390625 -1.375 0.390625q-0.484375 0 -1.078125 -0.203125zm9.40625 -0.015625l0 -13.640625l1.53125 0l0 1.28125q0.53125 -0.75 1.203125 -1.125q0.6875 -0.375 1.640625 -0.375q1.265625 0 2.234375 0.65625q0.96875 0.640625 1.453125 1.828125q0.5 1.1875 0.5 2.59375q0 1.515625 -0.546875 2.734375q-0.546875 1.203125 -1.578125 1.84375q-1.03125 0.640625 -2.171875 0.640625q-0.84375 0 -1.515625 -0.34375q-0.65625 -0.359375 -1.078125 -0.890625l0 4.796875l-1.671875 0zm1.515625 -8.65625q0 1.90625 0.765625 2.8125q0.78125 0.90625 1.875 0.90625q1.109375 0 1.890625 -0.9375q0.796875 -0.9375 0.796875 -2.921875q0 -1.875 -0.78125 -2.8125q-0.765625 -0.9375 -1.84375 -0.9375q-1.0625 0 -1.890625 1.0q-0.8125 1.0 -0.8125 2.890625zm15.610107 1.703125l1.71875 0.21875q-0.40625 1.5 -1.515625 2.34375q-1.09375 0.828125 -2.8125 0.828125q-2.15625 0 -3.421875 -1.328125q-1.265625 -1.328125 -1.265625 -3.734375q0 -2.484375 1.265625 -3.859375q1.28125 -1.375 3.328125 -1.375q1.984375 0 3.234375 1.34375q1.25 1.34375 1.25 3.796875q0 0.140625 -0.015625 0.4375l-7.34375 0q0.09375 1.625 0.921875 2.484375q0.828125 0.859375 2.0625 0.859375q0.90625 0 1.546875 -0.46875q0.65625 -0.484375 1.046875 -1.546875zm-5.484375 -2.703125l5.5 0q-0.109375 -1.234375 -0.625 -1.859375q-0.796875 -0.96875 -2.078125 -0.96875q-1.140625 0 -1.9375 0.78125q-0.78125 0.765625 -0.859375 2.046875zm8.438171 2.9375l1.65625 -0.265625q0.140625 1.0 0.765625 1.53125q0.640625 0.515625 1.78125 0.515625q1.15625 0 1.703125 -0.46875q0.5625 -0.46875 0.5625 -1.09375q0 -0.5625 -0.484375 -0.890625q-0.34375 -0.21875 -1.703125 -0.5625q-1.84375 -0.46875 -2.5625 -0.796875q-0.703125 -0.34375 -1.078125 -0.9375q-0.359375 -0.609375 -0.359375 -1.328125q0 -0.65625 0.296875 -1.21875q0.3125 -0.5625 0.828125 -0.9375q0.390625 -0.28125 1.0625 -0.484375q0.671875 -0.203125 1.4375 -0.203125q1.171875 0 2.046875 0.34375q0.875 0.328125 1.28125 0.90625q0.421875 0.5625 0.578125 1.515625l-1.625 0.21875q-0.109375 -0.75 -0.65625 -1.171875q-0.53125 -0.4375 -1.5 -0.4375q-1.15625 0 -1.640625 0.390625q-0.484375 0.375 -0.484375 0.875q0 0.328125 0.203125 0.59375q0.203125 0.265625 0.640625 0.4375q0.25 0.09375 1.46875 0.4375q1.765625 0.46875 2.46875 0.765625q0.703125 0.296875 1.09375 0.875q0.40625 0.578125 0.40625 1.4375q0 0.828125 -0.484375 1.578125q-0.484375 0.734375 -1.40625 1.140625q-0.921875 0.390625 -2.078125 0.390625q-1.921875 0 -2.9375 -0.796875q-1.0 -0.796875 -1.28125 -2.359375z" fill-rule="nonzero"></path></g></svg>

